<svg width="1783" height="1783" viewBox="0 0 1783 1783" fill="none" xmlns="http://www.w3.org/2000/svg">
<path d="M1447.76 1258.95L1497.22 1227.07L1481.89 1268.93H1444.91L1447.76 1258.95Z" fill="#F0FAFF"/>
<path opacity="0.2" d="M1447.76 1258.95L1497.22 1227.07L1481.89 1268.93H1444.91L1447.76 1258.95Z" fill="white"/>
<path opacity="0.4" d="M1448.76 1259.4L1496.68 1228.52L1481.89 1268.92H1445.8L1448.76 1259.4Z" fill="white"/>
<path d="M1497.33 1288.29L1535.45 1199.03H1510.99L1475.86 1289.93L1497.33 1288.29Z" fill="#F0FAFF"/>
<path opacity="0.2" d="M1497.33 1288.29L1535.45 1199.03H1510.99L1475.86 1289.93L1497.33 1288.29Z" fill="white"/>
<path opacity="0.4" d="M1497.33 1288.29L1535.13 1199.78H1511.38L1476.61 1289.86L1497.33 1288.29Z" fill="white"/>
<path d="M1498.83 1287.97L1536.66 1198.46L1557.77 1197.92L1521.36 1284.76L1498.83 1287.97Z" fill="#F0FAFF"/>
<path opacity="0.2" d="M1498.83 1287.97L1536.66 1198.46L1557.77 1197.92L1521.36 1284.76L1498.83 1287.97Z" fill="white"/>
<path opacity="0.4" d="M1499.25 1287.9L1537.23 1199.03L1557.56 1198.46L1521.36 1284.76L1499.25 1287.9Z" fill="white"/>
<path d="M1558.98 1197.39L1579.24 1196.96L1542.94 1281.16L1522.68 1284.08L1558.98 1197.39Z" fill="#F0FAFF"/>
<path opacity="0.2" d="M1558.98 1197.39L1579.24 1196.96L1542.94 1281.16L1522.68 1284.08L1558.98 1197.39Z" fill="white"/>
<path opacity="0.4" d="M1559.34 1197.93L1579.06 1197.36L1542.94 1281.16L1523.15 1284.01L1559.34 1197.93Z" fill="white"/>
<path d="M1580.52 1196.96L1598.28 1196.43L1563.41 1278.2L1544.01 1281.05L1580.52 1196.96Z" fill="#F0FAFF"/>
<path opacity="0.2" d="M1580.52 1196.96L1598.28 1196.43L1563.41 1278.2L1544.01 1281.05L1580.52 1196.96Z" fill="white"/>
<path opacity="0.4" d="M1580.92 1197.35L1598.18 1196.71L1563.41 1278.2L1544.58 1280.94L1580.92 1197.35Z" fill="white"/>
<path d="M1427.01 1269.21L1395.8 1355.05L1454.18 1338.86L1483.06 1255.66L1427.01 1269.21Z" fill="#275677"/>
<path opacity="0.2" d="M1427.01 1269.21L1395.8 1355.05L1454.18 1338.86L1483.06 1255.66L1427.01 1269.21Z" fill="black"/>
<path d="M1345.52 1221.57L1427.01 1269.21L1395.81 1355.05L1316.39 1302.27L1345.52 1221.57Z" fill="#275677"/>
<path opacity="0.05" d="M1345.52 1221.57L1427.01 1269.21L1395.81 1355.05L1316.39 1302.27L1345.52 1221.57Z" fill="black"/>
<path d="M1345.52 1221.57L1405.65 1216.93L1483.07 1255.66L1427.01 1269.21L1345.52 1221.57Z" fill="#275677"/>
<path opacity="0.4" d="M1345.52 1221.57L1405.65 1216.93L1483.07 1255.66L1427.01 1269.21L1345.52 1221.57Z" fill="white"/>
<path d="M1449.3 1189.76L1451.58 1190.94L1432.21 1242.97L1429.33 1242.07L1449.3 1189.76Z" fill="#F0FAFF"/>
<path opacity="0.4" d="M1449.3 1189.76L1450.19 1190.23L1430.29 1242.36L1429.33 1242.07L1449.3 1189.76Z" fill="white"/>
<path opacity="0.2" d="M1451.58 1190.94L1450.18 1190.23L1430.29 1242.36L1432.21 1242.97L1451.58 1190.94Z" fill="white"/>
<path d="M1168.44 1212.3L1128.28 1342.89L1174.5 1335.68L1215.26 1210.59L1168.44 1212.3Z" fill="#F0FAFF"/>
<path opacity="0.2" d="M1168.44 1212.3L1128.28 1342.89L1174.5 1335.68L1215.26 1210.59L1168.44 1212.3Z" fill="white"/>
<path opacity="0.4" d="M1169.15 1213.05L1129.28 1342.75L1174.5 1335.69L1214.9 1211.62L1169.15 1213.05Z" fill="white"/>
<path d="M1217.25 1210.59L1177.1 1335.68L1220.71 1329.3L1260.58 1208.84L1217.25 1210.59Z" fill="#F0FAFF"/>
<path opacity="0.2" d="M1217.25 1210.59L1177.1 1335.68L1220.71 1329.3L1260.58 1208.84L1217.25 1210.59Z" fill="white"/>
<path opacity="0.4" d="M1218.01 1211.62L1178.14 1335.51L1220.72 1329.3L1260.37 1209.59L1218.01 1211.62Z" fill="white"/>
<path d="M1262.33 1208.88L1222.6 1328.3L1262.33 1323.24L1302.05 1207.84L1262.33 1208.88Z" fill="#F0FAFF"/>
<path opacity="0.2" d="M1262.33 1208.88L1222.6 1328.3L1262.33 1323.24L1302.05 1207.84L1262.33 1208.88Z" fill="white"/>
<path opacity="0.4" d="M1262.87 1209.59L1223.67 1328.16L1262.33 1323.24L1301.7 1208.84L1262.87 1209.59Z" fill="white"/>
<path d="M1303.66 1206.81L1263.51 1322.67L1301.2 1317.32L1340.18 1205.52L1303.66 1206.81Z" fill="#F0FAFF"/>
<path opacity="0.2" d="M1303.66 1206.81L1263.51 1322.67L1301.2 1317.32L1340.18 1205.52L1303.66 1206.81Z" fill="white"/>
<path opacity="0.4" d="M1304.09 1207.55L1264.4 1322.56L1301.2 1317.31L1339.93 1206.23L1304.09 1207.55Z" fill="white"/>
<path d="M1374.66 1268.07L1369.91 1281.8L1311.15 1293.5L1331.69 1236.3L1374.66 1268.07Z" fill="#F0FAFF"/>
<path opacity="0.2" d="M1374.66 1268.07L1369.91 1281.8L1311.15 1293.5L1331.69 1236.3L1374.66 1268.07Z" fill="white"/>
<path opacity="0.4" d="M1374.23 1269.21L1369.92 1281.8L1312.22 1293.28L1332.12 1237.44L1374.23 1269.21Z" fill="white"/>
<path d="M1484.35 1261.69L1428.33 1366.06C1413.35 1358.93 1413.24 1316.46 1424.4 1292.07C1438.2 1268.39 1468.83 1256.77 1484.35 1261.69Z" fill="#F0FAFF"/>
<g opacity="0.2">
<path d="M1432.82 1357.65L1430.39 1362.17C1416.52 1349.09 1417.7 1311.57 1424.4 1292.07C1413.85 1333.9 1432.82 1357.65 1432.82 1357.65Z" fill="black"/>
</g>
<g opacity="0.3">
<path d="M1484.35 1261.69L1428.33 1366.06C1413.35 1358.93 1413.24 1316.46 1424.4 1292.07C1438.2 1268.39 1468.84 1256.77 1484.35 1261.69Z" fill="white"/>
</g>
<path opacity="0.2" d="M1427.9 1288.83C1450.04 1269.5 1465.8 1266.47 1479.68 1270.39L1481.92 1266.18C1464.77 1264.04 1448.76 1268.18 1427.9 1288.83Z" fill="white"/>
<path d="M1434.71 1301.13C1418.31 1329.66 1414.67 1358.19 1426.58 1365.03C1438.49 1371.88 1461.42 1354.33 1477.83 1326.02C1494.23 1297.71 1497.87 1268.96 1485.96 1262.15C1474.05 1255.34 1451.12 1272.74 1434.71 1301.13Z" fill="#275677"/>
<path opacity="0.4" d="M1434.71 1301.13C1418.31 1329.66 1414.67 1358.19 1426.58 1365.03C1438.49 1371.88 1461.42 1354.33 1477.83 1326.02C1494.23 1297.71 1497.87 1268.96 1485.96 1262.15C1474.05 1255.34 1451.12 1272.74 1434.71 1301.13Z" fill="white"/>
<path opacity="0.2" d="M1434.78 1300.06C1431.62 1305.68 1428.98 1311.57 1426.9 1317.67C1426.02 1319.99 1425.94 1322.53 1426.66 1324.9C1427.39 1327.27 1428.87 1329.33 1430.89 1330.76C1436.6 1334.04 1447.62 1325.66 1455.5 1312.04C1463.38 1298.42 1465.13 1284.65 1459.42 1281.34C1456.07 1279.41 1449.61 1280.66 1444.94 1286.01C1441.13 1290.37 1437.73 1295.07 1434.78 1300.06V1300.06Z" fill="black"/>
<path d="M1464.77 1309.72L1449.86 1303.69L1441.41 1294.46C1439.38 1295.09 1437.64 1296.44 1436.52 1298.26C1435.4 1300.07 1434.97 1302.23 1435.31 1304.33L1446.8 1308.11L1458.21 1320.99L1464.77 1309.72Z" fill="#F0FAFF"/>
<path opacity="0.2" d="M1464.77 1309.72L1449.86 1303.69L1441.41 1294.46C1439.38 1295.09 1437.64 1296.44 1436.52 1298.26C1435.4 1300.07 1434.97 1302.23 1435.31 1304.33L1446.8 1308.11L1458.21 1320.99L1464.77 1309.72Z" fill="white"/>
<path d="M1459.1 1314.04C1457.28 1317.21 1456.89 1320.35 1458.21 1321.17C1459.53 1321.99 1462.06 1319.99 1463.88 1316.85C1465.7 1313.71 1466.09 1310.54 1464.77 1309.72C1463.45 1308.9 1460.92 1310.9 1459.1 1314.04Z" fill="#F0FAFF"/>
<path opacity="0.4" d="M1459.1 1314.04C1457.28 1317.21 1456.89 1320.35 1458.21 1321.17C1459.53 1321.99 1462.06 1319.99 1463.88 1316.85C1465.7 1313.71 1466.09 1310.54 1464.77 1309.72C1463.45 1308.9 1460.92 1310.9 1459.1 1314.04Z" fill="white"/>
<path opacity="0.2" d="M1436.63 1298.24C1435.59 1300.14 1435.13 1302.31 1435.32 1304.48L1446.8 1308.26L1458.21 1321.13C1456.78 1320.06 1457.78 1315.78 1459.42 1313.54C1459.42 1313.54 1454.93 1310.72 1436.63 1298.24Z" fill="black"/>
<path opacity="0.2" d="M1463.77 1309.62L1449.47 1304.23L1440.59 1294.92L1440.02 1295.14L1449.22 1304.34L1462.95 1309.9L1463.77 1309.62Z" fill="white"/>
<g opacity="0.2">
<path d="M1459.82 1314.46C1458.28 1317.14 1457.93 1319.85 1459.03 1320.49C1460.14 1321.13 1462.35 1319.49 1463.88 1316.93C1465.42 1314.36 1465.77 1311.54 1464.67 1310.86C1463.56 1310.19 1461.35 1311.75 1459.82 1314.46Z" fill="black"/>
<path opacity="0.4" d="M1459.82 1314.46C1458.28 1317.14 1457.93 1319.85 1459.03 1320.49C1460.14 1321.13 1462.35 1319.49 1463.88 1316.93C1465.42 1314.36 1465.77 1311.54 1464.67 1310.86C1463.56 1310.19 1461.35 1311.75 1459.82 1314.46Z" fill="black"/>
</g>
<path d="M1436.21 1358.43L1436.92 1359.58L1477.79 1339.64L1477.25 1338.57L1436.21 1358.43Z" fill="#F0FAFF"/>
<path opacity="0.1" d="M1436.21 1358.43L1436.92 1359.58L1477.79 1339.64L1477.25 1338.57L1436.21 1358.43Z" fill="white"/>
<path d="M1489.56 1282.66H1490.63L1491.77 1318.46H1490.34L1489.56 1282.66Z" fill="#F0FAFF"/>
<path opacity="0.1" d="M1489.56 1282.66H1490.63L1491.77 1318.46H1490.34L1489.56 1282.66Z" fill="white"/>
<path d="M1441.59 1291.39L1491.77 1318.46L1491.16 1319.28L1440.66 1292.32L1441.59 1291.39Z" fill="#F0FAFF"/>
<path opacity="0.1" d="M1441.59 1291.39L1491.77 1318.46L1491.16 1319.28L1440.66 1292.32L1441.59 1291.39Z" fill="white"/>
<path d="M1439.42 1294.85L1440.27 1293.78L1478.14 1338.07L1477.57 1338.93L1439.42 1294.85Z" fill="#F0FAFF"/>
<path opacity="0.1" d="M1439.42 1294.85L1440.27 1293.78L1478.14 1338.07L1477.57 1338.93L1439.42 1294.85Z" fill="white"/>
<path d="M1480.25 1327.23C1476.68 1333.61 1475.76 1340.03 1478.43 1341.49C1481.11 1342.95 1486.28 1339.14 1489.95 1332.76C1493.62 1326.37 1494.44 1319.95 1491.77 1318.49C1489.09 1317.03 1483.96 1320.84 1480.25 1327.23Z" fill="#F0FAFF"/>
<path opacity="0.2" d="M1480.25 1327.23C1476.68 1333.61 1475.76 1340.03 1478.43 1341.49C1481.11 1342.95 1486.28 1339.14 1489.95 1332.76C1493.62 1326.37 1494.44 1319.95 1491.77 1318.49C1489.09 1317.03 1483.96 1320.84 1480.25 1327.23Z" fill="white"/>
<path opacity="0.1" d="M1481.25 1327.8C1477.93 1333.55 1477.22 1339.29 1479.61 1340.68C1482 1342.07 1486.74 1338.54 1489.95 1332.83C1493.16 1327.13 1493.98 1321.31 1491.59 1319.92C1489.2 1318.53 1484.56 1322.06 1481.25 1327.8Z" fill="black"/>
<path opacity="0.2" d="M1369.92 1281.8L1316.39 1302.27L1320.31 1291.39L1369.92 1281.8Z" fill="black"/>
<path d="M1416.52 560.788C1468.97 560.788 1511.48 518.272 1511.48 465.826C1511.48 413.379 1468.97 370.863 1416.52 370.863C1364.07 370.863 1321.56 413.379 1321.56 465.826C1321.56 518.272 1364.07 560.788 1416.52 560.788Z" fill="#EEF8FF"/>
<path opacity="0.4" d="M1416.52 560.788C1468.97 560.788 1511.48 518.272 1511.48 465.826C1511.48 413.379 1468.97 370.863 1416.52 370.863C1364.07 370.863 1321.56 413.379 1321.56 465.826C1321.56 518.272 1364.07 560.788 1416.52 560.788Z" fill="white"/>
<path opacity="0.4" d="M1416.52 560.788C1468.97 560.788 1511.48 518.272 1511.48 465.826C1511.48 413.379 1468.97 370.863 1416.52 370.863C1364.07 370.863 1321.56 413.379 1321.56 465.826C1321.56 518.272 1364.07 560.788 1416.52 560.788Z" fill="white"/>
<path opacity="0.2" d="M1332.87 420.787C1330.73 431.485 1338.14 435.978 1354.44 435.051C1393.07 432.892 1430.83 422.716 1465.31 405.168C1472.87 399.997 1473.62 394.113 1470.76 387.837C1516.87 424.46 1520.08 473.421 1500.01 511.042C1495.12 518.453 1487.79 523.916 1479.29 526.483C1454.67 536.175 1428.86 542.496 1402.55 545.276C1378.19 548.842 1363.89 547.237 1358.4 540.89C1316.86 508.689 1313.36 459.3 1332.87 420.787Z" fill="white"/>
<path opacity="0.2" d="M1321.56 465.826C1321.46 484.104 1326.94 501.978 1337.25 517.069C1342.24 524.201 1358.4 525.627 1383.61 522.097C1416.37 518.722 1448.52 510.85 1479.14 498.704C1495.83 492.143 1506.88 483.763 1511.63 473.243C1512.73 456.389 1509.39 439.541 1501.93 424.389C1500.47 437.512 1491.48 448.388 1473.4 456.483C1438.04 469.721 1401.27 478.804 1363.82 483.549C1339.96 486.294 1323.52 482.372 1321.56 465.826Z" fill="white"/>
<path opacity="0.1" d="M1378.33 382.237C1387.39 378.736 1396.78 376.167 1406.36 374.57C1418.95 373.286 1421.12 375.426 1419.73 378.742C1415.99 382.575 1411.56 385.672 1406.68 387.871C1399.08 391.162 1391.02 393.244 1382.79 394.04C1377.04 394.29 1370.95 394.432 1367.49 391.794C1365.78 388.691 1370.91 385.41 1378.33 382.237Z" fill="black"/>
<path d="M1569.9 419.185C1565.15 404.565 1533.95 400.464 1490.41 406.205C1494.3 410.891 1497.67 415.984 1500.47 421.396C1516.05 422.003 1526.35 425.711 1528.6 432.594C1534.09 449.603 1488.41 479.629 1426.54 499.634C1364.67 519.64 1310.08 522.136 1304.59 505.126C1302.2 497.994 1307.94 489.186 1321.63 478.916C1321.45 478.916 1322.59 478.167 1322.42 478.274C1321.65 472.363 1321.44 466.394 1321.77 460.444C1282.05 481.626 1258.37 503.7 1263.18 518.534C1270.74 541.82 1345.52 538.468 1430.25 511.01C1514.98 483.552 1577.46 442.471 1569.9 419.185Z" fill="#EEF8FF"/>
<path opacity="0.3" d="M1569.9 419.185C1565.15 404.565 1533.95 400.464 1490.41 406.205C1494.3 410.891 1497.67 415.984 1500.47 421.396C1516.05 422.003 1526.35 425.711 1528.6 432.594C1534.09 449.603 1488.41 479.629 1426.54 499.634C1364.67 519.64 1310.08 522.136 1304.59 505.126C1302.2 497.994 1307.94 489.186 1321.63 478.916C1321.45 478.916 1322.59 478.167 1322.42 478.274C1321.65 472.363 1321.44 466.394 1321.77 460.444C1282.05 481.626 1258.37 503.7 1263.18 518.534C1270.74 541.82 1345.52 538.468 1430.25 511.01C1514.98 483.552 1577.46 442.471 1569.9 419.185Z" fill="#234D6B"/>
<path d="M503.818 735.119C558.144 680.794 558.144 592.714 503.818 538.388C449.493 484.063 361.413 484.063 307.088 538.389C252.762 592.714 252.762 680.794 307.088 735.119C361.413 789.445 449.493 789.445 503.818 735.119Z" fill="white"/>
<path opacity="0.4" d="M503.818 735.119C558.144 680.794 558.144 592.714 503.818 538.388C449.493 484.063 361.413 484.063 307.088 538.389C252.762 592.714 252.762 680.794 307.088 735.119C361.413 789.445 449.493 789.445 503.818 735.119Z" fill="white"/>
<path opacity="0.2" d="M505.303 647.478L502.13 647.941C501.72 648.007 501.301 647.984 500.901 647.873C500.501 647.762 500.129 647.566 499.812 647.299L494.677 642.984C494.453 642.809 494.214 642.654 493.964 642.521L478.986 636.066C478.481 635.846 478.049 635.488 477.738 635.032L469.287 623.086C468.913 622.539 468.395 622.107 467.789 621.838L462.832 619.556C462.607 619.447 462.367 619.375 462.119 619.342L456.877 618.557C456.155 618.429 455.471 618.136 454.88 617.701L443.754 609.286C443.304 608.955 442.776 608.746 442.221 608.679L434.055 607.61C433.522 607.537 432.98 607.611 432.486 607.824L430.275 608.786C429.903 608.945 429.503 609.027 429.098 609.027C428.694 609.027 428.293 608.945 427.921 608.786L418.186 604.293C417.611 604.01 416.956 603.935 416.332 604.079L407.702 606.005C407.161 606.14 406.676 606.439 406.311 606.861L402.745 610.783C402.441 611.12 402.053 611.37 401.621 611.507C401.189 611.645 400.728 611.666 400.285 611.568L393.153 610.07L378.14 603.366L373.254 595.735C372.892 595.137 372.765 594.425 372.898 593.738L373.968 587.818L377.534 579.331C377.575 579.248 377.592 579.156 377.583 579.064C377.575 578.972 377.541 578.884 377.486 578.81C377.43 578.736 377.355 578.679 377.269 578.645C377.183 578.611 377.09 578.602 376.999 578.618L370.687 579.367C370.289 579.418 369.908 579.56 369.574 579.783C369.24 580.006 368.962 580.303 368.761 580.651L366.907 583.86C366.694 584.219 366.411 584.53 366.073 584.775C365.736 585.021 365.352 585.195 364.946 585.286L356.316 587.212C355.919 587.313 355.499 587.259 355.141 587.06C354.783 586.861 354.514 586.533 354.39 586.142L353.321 582.897L350.682 578.047C350.439 577.65 350.311 577.194 350.311 576.728C350.311 576.262 350.439 575.806 350.682 575.409L354.961 569.168L356.637 564.853C356.848 564.293 357.236 563.817 357.742 563.498L363.412 559.932C363.989 559.579 364.666 559.428 365.338 559.504L370.723 560.253C371.063 560.304 371.41 560.282 371.742 560.19C372.074 560.098 372.383 559.937 372.648 559.718L374.823 558.007C375.219 557.716 375.689 557.543 376.179 557.507L382.205 557.079C382.697 557.053 383.188 557.151 383.632 557.365L386.877 558.862C387.189 559.016 387.452 559.255 387.635 559.552C387.817 559.848 387.913 560.19 387.911 560.538V563.427C387.911 563.881 388.091 564.316 388.412 564.637C388.733 564.958 389.168 565.139 389.622 565.139H390.585C390.893 565.135 391.196 565.068 391.477 564.942C391.758 564.816 392.009 564.633 392.217 564.406C392.424 564.178 392.582 563.911 392.682 563.62C392.782 563.329 392.821 563.02 392.796 562.714L392.511 560.217L391.94 555.154C391.882 554.672 391.974 554.183 392.203 553.756C392.433 553.328 392.79 552.982 393.224 552.765L399.001 549.876L406.561 541.567L411.696 533.829L421.181 530.869C421.58 530.748 421.93 530.503 422.18 530.17C422.43 529.836 422.568 529.432 422.572 529.015V524.379C422.569 523.969 422.704 523.569 422.957 523.245C423.209 522.922 423.564 522.693 423.963 522.596L430.239 521.063C430.798 520.928 431.291 520.6 431.63 520.136L434.233 516.284C434.325 516.154 434.385 516.004 434.409 515.847C434.433 515.689 434.421 515.528 434.373 515.376C434.324 515.224 434.241 515.085 434.131 514.971C434.02 514.856 433.884 514.769 433.734 514.715L422.287 510.507L413.907 506.442C413.544 506.268 413.143 506.193 412.742 506.225C412.341 506.256 411.956 506.392 411.625 506.621L400.927 514.073C400.553 514.326 400.12 514.478 399.671 514.515C399.221 514.553 398.77 514.474 398.359 514.287L390.621 510.721L384.808 508.047C384.694 507.997 384.596 507.915 384.528 507.81C384.459 507.706 384.423 507.583 384.423 507.458C384.423 507.334 384.459 507.211 384.528 507.107C384.596 507.002 384.694 506.92 384.808 506.87L390.692 504.909C390.954 504.828 391.197 504.695 391.405 504.517L399.393 497.812C379.465 498.86 359.999 504.213 342.337 513.503C335.247 531.564 330.223 550.37 327.36 569.56C327.307 570.006 327.361 570.458 327.516 570.88C327.67 571.301 327.923 571.68 328.252 571.985L350.147 592.953C350.537 593.321 351.039 593.547 351.573 593.595L359.704 594.487C360.111 594.519 360.504 594.654 360.845 594.879L392.226 613.743C392.603 613.957 392.909 614.278 393.106 614.664C393.302 615.051 393.381 615.487 393.331 615.918L390.3 647.62C390.162 648.806 390.44 650.003 391.084 651.008L406.418 675.364C406.62 675.677 406.873 675.954 407.167 676.184L418.935 685.241C419.218 685.461 419.436 685.752 419.568 686.084C419.7 686.416 419.74 686.778 419.684 687.131L415.476 712.878L407.452 752.639C408.237 757.988 415.191 754.707 425.282 747.218L435.303 730.744L444.111 727.178L466.648 711.095L482.16 693.515L490.505 675.043C490.649 674.749 490.829 674.473 491.039 674.223L499.527 664.487L505.196 658.603C505.712 658.065 506.004 657.352 506.017 656.606V648.119C506.024 648.027 506.009 647.934 505.975 647.848C505.94 647.762 505.887 647.685 505.818 647.623C505.749 647.561 505.667 647.516 505.577 647.491C505.488 647.465 505.395 647.461 505.303 647.478V647.478Z" fill="#507691"/>
<path d="M467.436 527.194H467.257C467.274 527.124 467.274 527.051 467.257 526.98L467.436 527.194Z" fill="white"/>
<path d="M1004.22 886.152C1015.85 892.286 1106.21 994.202 1082.11 1042.66C1064.28 1078.32 952.838 1094.91 952.838 1094.91L939.109 1064.49C939.109 1064.49 1020.7 1035.6 1025.51 1022.94C1030.33 1010.28 938.645 942.887 938.645 942.887L1004.22 886.152Z" fill="#275677"/>
<path opacity="0.3" d="M1004.22 886.152C1015.85 892.286 1106.21 994.202 1082.11 1042.66C1064.28 1078.32 952.838 1094.91 952.838 1094.91L939.109 1064.49C939.109 1064.49 1020.7 1035.6 1025.51 1022.94C1030.33 1010.28 938.645 942.887 938.645 942.887L1004.22 886.152Z" fill="white"/>
<path opacity="0.2" d="M991.815 1043.52C988.891 1055.36 980.404 1064.49 963.073 1069.41L973.771 1091.06L971.56 1091.52L954.657 1058.71L991.815 1043.52Z" fill="black"/>
<path d="M951.34 1051.97L974.982 1097.9L929.445 1108.21C928.796 1108.34 928.182 1108.61 927.643 1109C927.105 1109.38 926.653 1109.88 926.317 1110.45C925.981 1111.02 925.768 1111.65 925.693 1112.31C925.617 1112.97 925.681 1113.64 925.879 1114.27L931.299 1130.99C931.75 1132.49 931.697 1134.09 931.149 1135.55C930.602 1137.02 929.59 1138.26 928.268 1139.09L924.702 1141.23C923.625 1141.87 922.343 1142.07 921.122 1141.79C919.901 1141.51 918.834 1140.77 918.14 1139.73L878.914 1080.5C878.667 1080.13 878.508 1079.7 878.451 1079.26C878.393 1078.81 878.439 1078.36 878.584 1077.94C878.728 1077.51 878.968 1077.13 879.286 1076.81C879.603 1076.5 879.988 1076.26 880.412 1076.11L951.34 1051.97Z" fill="#275677"/>
<g opacity="0.2">
<path d="M951.34 1051.97L974.983 1097.9L929.445 1108.21C928.796 1108.34 928.183 1108.61 927.644 1109C927.105 1109.38 926.653 1109.88 926.317 1110.45C925.981 1111.02 925.769 1111.65 925.693 1112.31C925.618 1112.97 925.681 1113.64 925.879 1114.27L931.299 1130.99C931.75 1132.49 931.697 1134.09 931.15 1135.55C930.602 1137.02 929.59 1138.26 928.268 1139.09L924.702 1141.23C923.625 1141.87 922.344 1142.07 921.123 1141.79C919.902 1141.51 918.834 1140.77 918.141 1139.73L878.915 1080.5C878.667 1080.13 878.509 1079.7 878.451 1079.26C878.394 1078.81 878.439 1078.36 878.584 1077.94C878.729 1077.51 878.969 1077.13 879.286 1076.81C879.603 1076.5 879.988 1076.26 880.413 1076.11L951.34 1051.97Z" fill="white"/>
</g>
<path opacity="0.2" d="M909.33 1066.24C926.071 1070.49 943.441 1071.7 960.609 1069.81L951.338 1051.8L909.33 1066.24Z" fill="black"/>
<path opacity="0.2" d="M999.692 991.635L1007.18 998.482C1014.81 970.917 1001.05 944.528 996.482 909.332L989.885 911.186C996.168 937.549 999.458 964.536 999.692 991.635Z" fill="black"/>
<path d="M799.36 1181.21L734.601 1206.06L722.477 1110.81L786.451 1085.17L799.36 1181.21Z" fill="#275677"/>
<path opacity="0.2" d="M799.36 1181.21L734.601 1206.06L722.477 1110.81L786.451 1085.17L799.36 1181.21Z" fill="black"/>
<path d="M758.562 1087.64C797.11 1008.72 835.766 951.842 874.707 944.282L1169.65 859.412C1240.4 848.714 1304.23 869.61 1360.75 924.241C1350.3 1012.89 1307.26 1059.43 1245.5 1081.47L940.464 1161.63C912.613 1168.55 855.415 1147.08 758.562 1087.64Z" fill="#275677"/>
<path d="M676.296 1097.3L780.173 1048.41C807.346 1066.24 810.235 1092.84 801.819 1113.81L696.408 1148.5C673.764 1135.02 669.128 1120.19 676.296 1097.3Z" fill="#275677"/>
<path d="M603.476 1073.76L561.005 1077.58C547.918 1078.75 535.565 1084.15 525.809 1092.95L394.544 1211.62L572.167 1226.71C581.714 1227.53 591.319 1226.07 600.196 1222.47L634.215 1208.56C643.446 1204.79 651.604 1198.8 657.967 1191.12C664.331 1183.45 668.702 1174.32 670.695 1164.55L672.051 1157.92C674.09 1147.8 673.513 1137.33 670.375 1127.5L666.523 1115.49C664.093 1107.86 660.179 1100.8 655.005 1094.7V1094.7C648.71 1087.35 640.747 1081.61 631.783 1077.97C622.818 1074.33 613.112 1072.89 603.476 1073.76V1073.76Z" fill="#275677"/>
<path opacity="0.19" d="M603.476 1073.76L561.005 1077.58C547.918 1078.75 535.565 1084.15 525.809 1092.95L394.544 1211.62L572.167 1226.71C581.714 1227.53 591.319 1226.07 600.196 1222.47L634.215 1208.56C643.446 1204.79 651.604 1198.8 657.967 1191.12C664.331 1183.45 668.702 1174.32 670.695 1164.55L672.051 1157.92C674.09 1147.8 673.513 1137.33 670.375 1127.5L666.523 1115.49C664.093 1107.86 660.179 1100.8 655.005 1094.7V1094.7C648.71 1087.35 640.747 1081.61 631.783 1077.97C622.818 1074.33 613.112 1072.89 603.476 1073.76V1073.76Z" fill="white"/>
<path opacity="0.29" d="M629.969 1104L608.323 1105.96C601.693 1106.58 595.438 1109.31 590.493 1113.77L523.631 1174.22L614.1 1181.99C618.96 1182.4 623.847 1181.66 628.364 1179.82L645.695 1172.68C650.398 1170.76 654.554 1167.71 657.795 1163.8C661.036 1159.88 663.261 1155.23 664.274 1150.25L664.951 1146.87C666.003 1141.72 665.72 1136.39 664.131 1131.39L662.17 1125.26C660.938 1121.34 658.938 1117.7 656.286 1114.56V1114.56C653.065 1110.82 648.994 1107.91 644.414 1106.07C639.834 1104.24 634.88 1103.53 629.969 1104V1104Z" fill="white"/>
<path d="M638.314 1116.95L624.763 1118.16C620.597 1118.55 616.67 1120.28 613.565 1123.08L571.772 1160.88L628.329 1165.73C631.377 1165.98 634.442 1165.52 637.279 1164.37L647.977 1159.95C650.915 1158.74 653.509 1156.83 655.531 1154.38C657.552 1151.93 658.939 1149.02 659.567 1145.9L659.995 1143.8C660.639 1140.58 660.455 1137.26 659.46 1134.13L658.247 1130.28C657.5 1127.87 656.289 1125.63 654.681 1123.69C652.687 1121.34 650.161 1119.51 647.314 1118.33C644.467 1117.16 641.381 1116.69 638.314 1116.95V1116.95Z" fill="#275677"/>
<path opacity="0.1" d="M758.562 1087.64C797.11 1008.72 835.766 951.843 877.06 943.606L1171.79 858.878C1240.22 848.715 1304.05 869.754 1360.57 924.385C1350.13 1013.04 1307.08 1059.57 1245.32 1081.61L940.285 1161.77C912.613 1168.55 855.415 1147.08 758.562 1087.64Z" fill="black"/>
<path d="M676.296 1097.3L780.173 1048.41C773.576 1077.11 787.983 1100.08 801.819 1113.81L696.408 1148.5C673.764 1135.02 669.128 1120.19 676.296 1097.3Z" fill="#275677"/>
<path d="M660.211 1256.45L759.453 1218.54L777.426 1098.9L703.146 1127.5L660.211 1256.45Z" fill="#275677"/>
<path opacity="0.3" d="M660.211 1256.45L759.453 1218.54L777.426 1098.9L703.146 1127.5L660.211 1256.45Z" fill="white"/>
<path d="M573.987 1019.13L682.144 986.251L770.402 1064.1L685.068 1099.22L573.987 1019.13Z" fill="#275677"/>
<path opacity="0.3" d="M573.987 1019.13L682.144 986.251L770.402 1064.1L685.068 1099.22L573.987 1019.13Z" fill="white"/>
<path opacity="0.7" d="M1124.47 872.497L1139.38 868.218C1134.22 871.731 1129.89 876.315 1126.67 881.657C1123.45 886.999 1121.43 892.973 1120.73 899.171C1107.64 968.066 1124.79 1031.11 1168.37 1085.71C1175.5 1093.05 1187.16 1094.87 1197.11 1094.27L1184.35 1097.62C1170.87 1098.51 1164.63 1094.05 1156.82 1086.92C1112.92 1044.88 1093.59 961.076 1108.78 900.133C1111.56 885.727 1118.27 874.28 1124.47 872.497Z" fill="white"/>
<path opacity="0.7" d="M1090.49 882.264L1104.75 878.163C1095.69 882.086 1088.06 896.528 1086.1 908.973C1073.05 977.868 1090.31 1040.1 1133.74 1095.51C1139.88 1102.32 1152.25 1104.03 1162.27 1103.46L1148.93 1106.85C1135.45 1107.74 1129.57 1104.53 1122.26 1096.79C1078.36 1054.75 1059 970.95 1074.19 910.007C1076.33 895.637 1086.24 883.476 1090.49 882.264Z" fill="white"/>
<path d="M1350.62 919.785C1347.88 927.166 1349.13 932.8 1356.08 935.832L1448.12 908.017C1461.92 902.347 1467.02 898.745 1446.48 901.348L1350.62 919.785Z" fill="#275677"/>
<path opacity="0.3" d="M1350.62 919.785C1347.88 927.166 1349.13 932.8 1356.08 935.832L1448.12 908.017C1461.92 902.347 1467.02 898.745 1446.48 901.348L1350.62 919.785Z" fill="black"/>
<path opacity="0.2" d="M793.226 1103.93C852.315 1125.33 918.785 1154.11 946.992 1145.62L1248.11 1065.56C1287.79 1059.68 1324.27 982.474 1351.8 932.978C1319.71 978.551 1287.26 1045.7 1240.08 1055.4L946.992 1133.99C912.901 1145.3 847.964 1118.27 793.226 1103.93Z" fill="black"/>
<path opacity="0.4" d="M1139.41 875.673C1133.62 879.947 1129.66 886.252 1128.32 893.325L1178.24 879.489C1225.28 869.254 1308.22 900.278 1349.41 925.847C1313.75 894.181 1225.24 855.882 1181.81 866.33L1139.41 875.673Z" fill="white"/>
<path opacity="0.3" d="M1350.27 930.803L1354.26 934.904L1459.24 902.632L1350.27 930.803Z" fill="black"/>
<path opacity="0.2" d="M977.338 914.79L974.77 1057L874.387 1057.54C926.7 1077.69 978.871 1083.71 992.457 1063.42C1015.96 1024.2 1014.92 970.206 999.589 908.336L977.338 914.79Z" fill="black"/>
<path opacity="0.2" d="M1001.23 914.609L1080.82 892.357C1077.83 896.258 1075.84 900.84 1075.05 905.694L1003.73 925.949L1001.23 914.609Z" fill="#E6E6E6"/>
<path opacity="0.2" d="M911.365 943.849L871.033 956.722C861.621 961.202 853.15 967.435 846.071 975.087L824.248 1000.37L839.26 1003.65L857.376 982.54C862.882 976.146 869.642 970.951 877.238 967.277L915.715 953.62L911.365 943.849Z" fill="#E0E0E0"/>
<path d="M834.054 752.427L888.186 794.007L975.446 805.133L1029.54 680.038L1004.05 644.948L888.186 603.547C859.052 644.984 845.43 696.512 834.054 752.427Z" fill="#275677"/>
<path opacity="0.2" d="M834.054 752.427L888.186 794.007L975.446 805.133L1029.54 680.038L1004.05 644.948L888.186 603.547C862.974 639.92 845.358 690.557 834.054 752.427Z" fill="white"/>
<path opacity="0.3" d="M834.054 752.427L888.186 793.971L944.208 655.539C926.093 645.162 907.443 628.045 888.186 603.547C865.506 633.287 847.712 684.067 834.054 752.427Z" fill="black"/>
<path d="M982.114 886.261C989.46 896.959 1020.7 1030.01 976.551 1061.32C944.1 1084.32 837.94 1046.23 837.94 1046.23L840.187 1012.93C840.187 1012.93 925.771 1026.08 936.005 1017.2C946.24 1008.33 899.775 927.342 897.314 905.589C894.854 883.836 982.114 886.261 982.114 886.261Z" fill="#275677"/>
<path opacity="0.3" d="M982.114 886.261C989.46 896.959 1020.7 1030.01 976.551 1061.32C944.1 1084.32 837.94 1046.23 837.94 1046.23L840.187 1012.93C840.187 1012.93 925.771 1026.08 936.005 1017.2C946.24 1008.33 899.775 927.342 897.314 905.589C894.854 883.836 982.114 886.261 982.114 886.261Z" fill="white"/>
<path d="M877.45 1011.86L874.17 1063.39L829.773 1048.87C829.141 1048.67 828.472 1048.6 827.812 1048.67C827.152 1048.75 826.514 1048.96 825.942 1049.3C825.369 1049.63 824.874 1050.09 824.49 1050.63C824.105 1051.17 823.84 1051.79 823.711 1052.44L819.788 1069.56C819.405 1071.07 818.535 1072.42 817.311 1073.39C816.086 1074.37 814.576 1074.91 813.013 1074.94H808.876C807.623 1074.94 806.416 1074.46 805.507 1073.6C804.598 1072.74 804.055 1071.56 803.991 1070.3L800.71 999.306C800.688 998.855 800.77 998.406 800.951 997.993C801.131 997.579 801.405 997.213 801.75 996.923C802.095 996.633 802.503 996.427 802.941 996.321C803.379 996.214 803.836 996.211 804.276 996.31L877.45 1011.86Z" fill="#275677"/>
<path d="M1059.49 683.392C1059.49 683.392 1075.72 762.806 1086.81 778.746C1097.9 794.686 1154.56 848.176 1154.56 848.176L1149.21 864.794C1149.21 864.794 1064.13 810.199 1058.28 802.532C1052.43 794.865 1012.74 720.335 1012.74 720.335L1059.49 683.392Z" fill="#275677"/>
<path d="M1086.81 594.672C1086.81 594.672 1082.18 617.244 1064.71 622.201C1047.23 627.158 1064.99 578.767 1064.99 578.767L1080.97 574.845L1086.81 594.672Z" fill="#263238"/>
<path d="M1084.69 649.461C1109.48 624.672 1109.48 584.482 1084.69 559.694C1059.9 534.905 1019.71 534.905 994.923 559.694C970.135 584.482 970.135 624.672 994.923 649.461C1019.71 674.249 1059.9 674.249 1084.69 649.461Z" fill="#263238"/>
<path opacity="0.2" d="M1084.69 649.461C1109.48 624.672 1109.48 584.482 1084.69 559.694C1059.9 534.905 1019.71 534.905 994.923 559.694C970.135 584.482 970.135 624.672 994.923 649.461C1019.71 674.249 1059.9 674.249 1084.69 649.461Z" fill="white"/>
<path opacity="0.7" d="M1055.54 653.546C1068.79 650.869 1080.51 643.211 1088.27 632.15L1083.39 629.262C1074.61 638.656 1063.84 645.966 1051.87 650.658L1055.54 653.546Z" fill="white"/>
<path opacity="0.7" d="M1089.95 628.798L1084.89 626.409C1086.05 625.094 1086.85 623.495 1087.2 621.773L1091.95 624.198C1091.8 625.91 1091.1 627.526 1089.95 628.798Z" fill="white"/>
<path d="M992.525 651.655C988.959 664.743 1026.62 683.143 1039.81 670.056C1032.68 664.671 1030.82 659.037 1031.72 653.545C1032.37 650.214 1033.7 647.048 1035.6 644.238C1036.6 642.626 1037.69 641.078 1038.88 639.602L1022.84 606.367C1019.52 620.988 1012.1 654.009 992.525 651.655Z" fill="#E4897B"/>
<path opacity="0.2" d="M1022.41 621.913C1015.28 638.21 1025.98 649.336 1031.72 653.544C1032.38 650.212 1033.7 647.047 1035.61 644.236L1022.41 621.913Z" fill="black"/>
<path d="M1017.1 628.187C1018.39 633.537 1021.42 638.308 1025.71 641.759C1030 645.209 1035.31 647.145 1040.81 647.266C1047.93 647.592 1054.91 645.181 1060.32 640.526C1061.07 639.895 1061.79 639.216 1062.45 638.493C1075.08 625.085 1087.42 598.09 1074.44 581.437C1071.59 577.748 1067.85 574.85 1063.57 573.02C1059.29 571.191 1054.61 570.491 1049.98 570.989C1045.35 571.486 1040.92 573.164 1037.12 575.861C1033.33 578.558 1030.29 582.185 1028.29 586.394C1019.41 604.295 1013.39 614.387 1017.1 628.187Z" fill="#E4897B"/>
<path d="M1051.76 606.224C1051.53 606.465 1051.35 606.751 1051.23 607.065C1051.12 607.378 1051.07 607.711 1051.08 608.045C1051.1 608.378 1051.18 608.705 1051.33 609.005C1051.48 609.305 1051.68 609.572 1051.94 609.79C1052.9 610.324 1054.29 609.79 1055.08 608.185C1055.86 606.58 1055.79 605.225 1054.86 604.619C1053.93 604.013 1052.58 604.904 1051.76 606.224Z" fill="#263238"/>
<path d="M1067.63 615.462C1067.18 615.964 1066.96 616.621 1067 617.289C1067.04 617.958 1067.34 618.583 1067.84 619.028C1068.77 619.528 1070.16 618.814 1070.98 617.424C1071.8 616.033 1071.69 614.428 1070.76 613.858C1069.84 613.287 1068.41 614.107 1067.63 615.462Z" fill="#263238"/>
<path d="M1062.21 613.354C1061.4 618.608 1061.34 623.951 1062.03 629.222C1060.67 629.361 1059.29 629.201 1058 628.751C1056.7 628.301 1055.52 627.573 1054.54 626.619L1062.21 613.354Z" fill="#DE5753"/>
<path d="M1049.76 598.375C1049.91 598.463 1050.08 598.509 1050.26 598.509C1050.43 598.509 1050.61 598.463 1050.76 598.375C1051.84 597.883 1053.03 597.652 1054.22 597.702C1055.41 597.751 1056.57 598.08 1057.61 598.66C1057.81 598.756 1058.05 598.775 1058.27 598.714C1058.49 598.653 1058.68 598.516 1058.8 598.328C1058.93 598.14 1058.99 597.913 1058.97 597.686C1058.94 597.46 1058.84 597.249 1058.68 597.091C1057.37 596.325 1055.91 595.882 1054.4 595.802C1052.89 595.721 1051.39 596.004 1050.01 596.628C1049.77 596.723 1049.59 596.908 1049.49 597.141C1049.38 597.375 1049.38 597.639 1049.48 597.876V597.876C1049.54 598.058 1049.64 598.228 1049.76 598.375Z" fill="#263238"/>
<path d="M1048.08 632.471C1045.9 631.629 1043.94 630.273 1042.39 628.516C1040.84 626.759 1039.73 624.654 1039.17 622.38C1039.15 622.243 1039.18 622.103 1039.26 621.99C1039.34 621.877 1039.46 621.799 1039.6 621.773C1039.72 621.752 1039.85 621.781 1039.96 621.854C1040.07 621.928 1040.14 622.039 1040.17 622.166C1040.72 624.258 1041.76 626.193 1043.19 627.82C1044.62 629.447 1046.4 630.721 1048.4 631.544C1048.46 631.564 1048.52 631.596 1048.56 631.637C1048.61 631.679 1048.65 631.73 1048.68 631.786C1048.7 631.843 1048.72 631.904 1048.72 631.967C1048.72 632.03 1048.71 632.092 1048.69 632.15V632.15C1048.64 632.273 1048.55 632.372 1048.43 632.425C1048.31 632.478 1048.17 632.482 1048.05 632.436L1048.08 632.471Z" fill="#263238"/>
<path d="M1077.61 613.893C1077.72 614.04 1077.89 614.142 1078.07 614.178C1078.2 614.193 1078.32 614.183 1078.44 614.147C1078.56 614.112 1078.68 614.052 1078.77 613.972C1078.87 613.892 1078.95 613.793 1079.01 613.682C1079.06 613.57 1079.1 613.448 1079.11 613.323V613.323C1079.24 611.817 1079.01 610.302 1078.43 608.906C1077.85 607.509 1076.95 606.272 1075.79 605.299C1075.69 605.222 1075.58 605.166 1075.46 605.133C1075.34 605.101 1075.22 605.092 1075.09 605.109C1074.97 605.126 1074.85 605.167 1074.74 605.23C1074.64 605.293 1074.54 605.377 1074.47 605.477V605.477C1074.33 605.682 1074.27 605.934 1074.31 606.18C1074.35 606.426 1074.49 606.647 1074.69 606.797V606.797C1075.56 607.605 1076.25 608.603 1076.68 609.716C1077.11 610.829 1077.28 612.026 1077.18 613.216C1077.2 613.352 1077.25 613.483 1077.32 613.599C1077.4 613.716 1077.49 613.816 1077.61 613.893Z" fill="#263238"/>
<path d="M1016.81 596.954C1020.73 579.338 1027.04 566.465 1033.36 563.541C1039.67 560.617 1055.29 582.226 1055.29 582.226C1054.34 581.4 1053.18 580.841 1051.94 580.606C1050.7 580.371 1049.42 580.468 1048.23 580.889C1047.05 581.309 1045.99 582.037 1045.17 582.999C1044.36 583.961 1043.81 585.121 1043.59 586.363C1042.77 594.208 1033.82 602.481 1026.69 603.979C1026.69 603.979 1028.01 601.055 1025.26 600.413C1022.52 599.771 1015.6 615.034 1016.67 624.519C1016.67 624.591 1012.75 614.57 1016.81 596.954Z" fill="#263238"/>
<path d="M1012.75 596.343C1012.43 601.346 1014.11 606.271 1017.42 610.037C1021.8 614.994 1027.62 611.927 1029.4 605.865C1030.93 600.48 1030.61 591.28 1024.69 588.605C1023.4 588.019 1021.98 587.767 1020.57 587.872C1019.16 587.977 1017.79 588.436 1016.6 589.207C1015.41 589.977 1014.44 591.035 1013.76 592.282C1013.09 593.529 1012.74 594.926 1012.75 596.343V596.343Z" fill="#E4897B"/>
<path d="M1027.86 572.026C1027.86 572.026 1040.17 557.762 1064.17 559.688C1093.51 562.148 1089.59 602.836 1084.6 604.584C1080.71 605.225 1083.74 587.36 1079.57 589.036C1076.36 591.425 1076.36 593.315 1073.01 592.994C1071.12 592.994 1068.87 588.786 1066.63 584.329C1062.24 579.764 1052.18 594.385 1044.73 597.416C1037.96 595.526 1032.29 581.262 1027.86 572.026Z" fill="#263238"/>
<path d="M887.476 814.978C885.407 848.712 889.722 891.468 900.313 916.858L989.963 911.224L1021.45 902.095C1015.53 895.997 1002.02 863.868 1011.22 813.516L887.476 814.978Z" fill="#275677"/>
<g opacity="0.3">
<path d="M887.475 814.979C885.407 848.713 889.722 891.469 900.313 916.859L989.962 911.225L1021.45 902.096C1014.82 894.964 1002.55 863.904 1011.22 813.517L887.475 814.979Z" fill="white"/>
</g>
<path opacity="0.2" d="M989.962 911.224L994.919 894.071L1012.43 904.734L989.962 911.224Z" fill="black"/>
<path d="M1022.41 608.398L1021.27 616.742C1020.92 619.323 1021.23 621.953 1022.2 624.373L1022.73 625.693C1023.7 628.119 1025.29 630.251 1027.33 631.877C1029.38 633.503 1031.81 634.567 1034.39 634.964L1039.78 635.784V638.316L1032.65 636.961C1030.2 636.487 1027.91 635.414 1025.99 633.84C1024.06 632.266 1022.55 630.239 1021.59 627.939L1020.34 624.908C1019.23 622.188 1018.93 619.201 1019.49 616.314L1021.09 607.97L1022.41 608.398Z" fill="#263238"/>
<path opacity="0.2" d="M1022.41 608.398L1021.27 616.742C1020.92 619.323 1021.23 621.953 1022.2 624.373L1022.73 625.693C1023.7 628.119 1025.29 630.251 1027.33 631.877C1029.38 633.503 1031.81 634.567 1034.39 634.964L1039.78 635.784V638.316L1032.65 636.961C1030.2 636.487 1027.91 635.414 1025.99 633.84C1024.06 632.266 1022.55 630.239 1021.59 627.939L1020.34 624.908C1019.23 622.188 1018.93 619.201 1019.49 616.314L1021.09 607.97L1022.41 608.398Z" fill="white"/>
<path d="M1043.88 634.29H1040.06C1038.92 634.29 1037.99 635.216 1037.99 636.358V638.926C1037.99 640.068 1038.92 640.994 1040.06 640.994H1043.88C1045.02 640.994 1045.94 640.068 1045.94 638.926V636.358C1045.94 635.216 1045.02 634.29 1043.88 634.29Z" fill="#263238"/>
<path d="M1023.37 597.236H1020.56C1019.31 597.236 1018.31 598.242 1018.31 599.483V607.292C1018.31 608.533 1019.31 609.539 1020.56 609.539H1023.37C1024.61 609.539 1025.62 608.533 1025.62 607.292V599.483C1025.62 598.242 1024.61 597.236 1023.37 597.236Z" fill="#263238"/>
<path opacity="0.15" d="M1059.49 683.392C1059.49 683.392 1075.72 762.806 1086.81 778.746C1097.9 794.686 1157.1 850.601 1157.1 850.601L1147 863.225C1147 863.225 1064.2 810.199 1058.35 802.603C1052.51 795.007 1012.74 720.335 1012.74 720.335L1059.49 683.392Z" fill="white"/>
<path opacity="0.2" d="M1031.58 739.626L1044.63 779.066L1028.26 749.254L1031.58 739.626Z" fill="black"/>
<path d="M886.833 825.499L1009.18 833.273C1009.18 833.273 1023.45 721.55 1062.67 685.747L1042.53 669.165L989.035 650.622C989.035 650.622 961.719 649.873 945.672 653.297C940.705 659.412 936.177 665.87 932.122 672.624C924.086 685.735 917.122 699.473 911.296 713.705C896.744 749.276 888.467 787.101 886.833 825.499V825.499Z" fill="#275677"/>
<path opacity="0.2" d="M1009.9 828.314L970.67 800.499C963.538 793.653 943.64 745.904 928.734 714.273L1012.32 814.977L1009.9 828.314Z" fill="black"/>
<path opacity="0.2" d="M969.701 650.797H974.194L1053.72 678.398L1057.03 681.108C1056.04 683.709 1054.07 685.82 1051.54 686.992L1046.94 689.203C1017.77 678.576 990.598 668.377 969.701 650.797Z" fill="#263238"/>
<path d="M975.804 676.26C975.804 676.26 997.949 753.464 1009.04 769.404C1020.13 785.344 1095.09 858.732 1095.09 858.732L1083.1 872.247C1083.1 872.247 983.578 805.528 977.73 797.861C971.881 790.194 929.303 716.52 929.303 716.52C917.892 685.104 959.258 636.107 975.804 676.26Z" fill="#275677"/>
<path opacity="0.15" d="M975.804 676.26C975.804 676.26 997.949 753.464 1009.04 769.404C1020.13 785.344 1095.09 858.732 1095.09 858.732L1083.1 872.247C1083.1 872.247 983.578 805.528 977.73 797.861C971.881 790.194 929.303 716.52 929.303 716.52C917.892 685.104 959.258 636.107 975.804 676.26Z" fill="white"/>
<path d="M939.892 709.388L948.022 726.077C951.588 712.668 958.007 704.681 967.564 702.47L958.078 683.392C948.854 689.349 942.326 698.68 939.892 709.388V709.388Z" fill="#275677"/>
<g opacity="0.2">
<path d="M877.45 1011.86L874.17 1063.39L829.773 1048.87C829.141 1048.67 828.472 1048.6 827.812 1048.68C827.152 1048.75 826.514 1048.96 825.942 1049.3C825.369 1049.63 824.874 1050.09 824.49 1050.63C824.105 1051.17 823.84 1051.79 823.711 1052.44L819.788 1069.56C819.405 1071.07 818.535 1072.42 817.311 1073.39C816.086 1074.37 814.576 1074.91 813.013 1074.94H808.876C807.623 1074.94 806.416 1074.46 805.507 1073.6C804.598 1072.74 804.055 1071.56 803.991 1070.31L800.71 999.307C800.688 998.856 800.77 998.407 800.951 997.994C801.131 997.58 801.405 997.214 801.75 996.924C802.095 996.634 802.503 996.428 802.941 996.322C803.379 996.215 803.836 996.212 804.276 996.311L877.45 1011.86Z" fill="white"/>
</g>
<path d="M1071.8 826.889L1042.02 857.057L1083.85 875.992L1093.48 897.923C1093.66 898.334 1093.94 898.695 1094.3 898.975C1094.65 899.254 1095.06 899.444 1095.5 899.528C1095.95 899.613 1096.4 899.588 1096.83 899.458C1097.26 899.327 1097.65 899.094 1097.97 898.779L1118.76 878.31C1119.03 878.057 1119.23 877.751 1119.37 877.412C1119.5 877.073 1119.56 876.709 1119.55 876.344C1119.53 875.98 1119.44 875.623 1119.27 875.298C1119.1 874.973 1118.87 874.687 1118.59 874.459L1099.15 858.305L1071.8 826.889Z" fill="#275677"/>
<path opacity="0.3" d="M1071.8 826.889L1042.02 857.057L1083.85 875.992L1093.48 897.923C1093.66 898.334 1093.94 898.695 1094.3 898.975C1094.65 899.254 1095.06 899.444 1095.5 899.528C1095.95 899.613 1096.4 899.588 1096.83 899.458C1097.26 899.327 1097.65 899.094 1097.97 898.779L1118.76 878.31C1119.03 878.057 1119.23 877.751 1119.37 877.412C1119.5 877.073 1119.56 876.709 1119.55 876.344C1119.53 875.98 1119.44 875.623 1119.27 875.298C1119.1 874.973 1118.87 874.687 1118.59 874.459L1099.15 858.305L1071.8 826.889Z" fill="white"/>
<path d="M1101.61 847.964L1131.42 814.979L1157.88 845.539L1176.03 854.739C1176.29 854.873 1176.51 855.057 1176.69 855.281C1176.87 855.505 1177.01 855.764 1177.08 856.042C1177.16 856.319 1177.18 856.609 1177.14 856.894C1177.1 857.18 1177 857.453 1176.85 857.699L1176.35 858.555L1145.54 866.4L1143.33 863.761L1101.61 847.964Z" fill="#275677"/>
<g opacity="0.3">
<path d="M1101.61 847.963L1131.42 814.978L1157.88 845.538L1176.03 854.738C1176.29 854.872 1176.51 855.056 1176.69 855.28C1176.87 855.504 1177.01 855.763 1177.08 856.041C1177.16 856.318 1177.18 856.608 1177.14 856.893C1177.1 857.179 1177 857.452 1176.85 857.698L1176.35 858.554L1145.54 866.399L1143.33 863.76L1101.61 847.963Z" fill="white"/>
</g>
<path d="M1103.29 604.585C1103.3 595.086 1101.18 585.704 1097.09 577.132C1092.99 568.561 1087.02 561.018 1079.62 555.06C1072.23 549.102 1063.58 544.88 1054.33 542.707C1045.09 540.534 1035.47 540.464 1026.19 542.502C1016.91 544.541 1008.21 548.637 1000.73 554.487C993.24 560.337 987.164 567.792 982.944 576.304C978.725 584.815 976.469 594.165 976.344 603.664C976.219 613.163 978.228 622.569 982.223 631.188L979.655 629.119C973.522 632.685 970.312 638.712 970.526 647.805C993.682 665.195 1019.95 678.001 1047.91 685.534C1050.62 683.205 1052.83 680.347 1054.4 677.134C1055.97 673.92 1056.87 670.42 1057.04 666.848L1054.36 666.277C1068.27 663.002 1080.67 655.13 1089.55 643.934C1098.43 632.738 1103.27 618.874 1103.29 604.585V604.585ZM1049.8 657.398C1040.68 657.398 1031.76 654.694 1024.18 649.627C1016.6 644.561 1010.69 637.36 1007.2 628.934C1003.71 620.509 1002.8 611.238 1004.58 602.294C1006.35 593.35 1010.75 585.134 1017.19 578.686C1023.64 572.238 1031.86 567.846 1040.8 566.067C1049.75 564.288 1059.02 565.201 1067.44 568.691C1075.87 572.181 1083.07 578.091 1088.14 585.673C1093.2 593.256 1095.91 602.17 1095.91 611.289C1095.92 623.496 1091.08 635.208 1082.46 643.853C1073.84 652.498 1062.15 657.37 1049.94 657.398H1049.8Z" fill="#275677"/>
<path opacity="0.3" d="M1103.29 604.585C1103.3 595.086 1101.18 585.704 1097.09 577.132C1092.99 568.561 1087.02 561.018 1079.62 555.06C1072.23 549.102 1063.58 544.88 1054.33 542.707C1045.09 540.534 1035.47 540.464 1026.19 542.502C1016.91 544.541 1008.21 548.637 1000.73 554.487C993.24 560.337 987.164 567.792 982.944 576.304C978.725 584.815 976.469 594.165 976.344 603.664C976.219 613.163 978.228 622.569 982.223 631.188L979.655 629.119C973.522 632.685 970.312 638.712 970.526 647.805C993.682 665.195 1019.95 678.001 1047.91 685.534C1050.62 683.205 1052.83 680.347 1054.4 677.134C1055.97 673.92 1056.87 670.42 1057.04 666.848L1054.36 666.277C1068.27 663.002 1080.67 655.13 1089.55 643.934C1098.43 632.738 1103.27 618.874 1103.29 604.585V604.585ZM1049.8 657.398C1040.68 657.398 1031.76 654.694 1024.18 649.627C1016.6 644.561 1010.69 637.36 1007.2 628.934C1003.71 620.509 1002.8 611.238 1004.58 602.294C1006.35 593.35 1010.75 585.134 1017.19 578.686C1023.64 572.238 1031.86 567.846 1040.8 566.067C1049.75 564.288 1059.02 565.201 1067.44 568.691C1075.87 572.181 1083.07 578.091 1088.14 585.673C1093.2 593.256 1095.91 602.17 1095.91 611.289C1095.92 623.496 1091.08 635.208 1082.46 643.853C1073.84 652.498 1062.15 657.37 1049.94 657.398H1049.8Z" fill="white"/>
<path opacity="0.2" d="M984.858 632.542L1004.04 644.952C989.779 634.611 981.613 619.491 980.044 598.915C978.354 610.354 980.026 622.037 984.858 632.542V632.542Z" fill="black"/>
<path opacity="0.2" d="M1055.54 549.667C1065.12 552.306 1073.96 557.119 1081.38 563.73C1088.81 570.341 1094.6 578.573 1098.33 587.787C1095.31 579.031 1090.55 570.979 1084.33 564.12C1078.11 557.26 1070.55 551.737 1062.13 547.884L1055.54 549.667Z" fill="white"/>
<path opacity="0.2" d="M1058.36 546.383L1052.04 548.879L1046.55 547.88L1047.98 543.565C1051.61 543.653 1055.17 544.62 1058.36 546.383Z" fill="white"/>
<path opacity="0.2" d="M877.063 1017.67L874.353 1057.36L876.599 1057.96L879.63 1017.92L877.063 1017.67Z" fill="#263238"/>
</svg>
