<svg width="6974" height="6974" viewBox="0 0 6974 6974" fill="none" xmlns="http://www.w3.org/2000/svg">
<path d="M6380.37 515.236H963.943V4117.73H6380.37V515.236Z" fill="#E0E0E0"/>
<path d="M6216.2 676.344H799.777V4278.83H6216.2V676.344Z" fill="#EBEBEB"/>
<path d="M1131.04 5375.97C1184.27 5351.01 1244.09 5343.73 1301.76 5355.19C1332.86 5360.35 1365.08 5369.14 1385.45 5392.85C1405.81 5416.56 1410.56 5457.01 1386.29 5476.54C1370.76 5487.28 1351.95 5492.21 1333.14 5490.49C1287.95 5490.49 1237.88 5482.12 1201.89 5509.18C1181.25 5524.66 1167.58 5551.02 1143.03 5558.13C1130.78 5561.02 1117.92 5559.86 1106.38 5554.83C1094.84 5549.8 1085.24 5541.18 1079.01 5530.24C1067.23 5507.63 1064.63 5481.35 1071.76 5456.87C1074.64 5439.7 1081.5 5423.43 1091.8 5409.39C1102.09 5395.34 1115.53 5383.9 1131.04 5375.97V5375.97Z" fill="#EBEBEB"/>
<path d="M1012.05 5146.8C1043.86 5192.13 1105.51 5177.06 1134.1 5149.45C1162.69 5121.83 1174.83 5081.52 1185.85 5043.3C1211.09 4955.85 1236.48 4864.21 1217.65 4775.08C1213.16 4748.09 1201.34 4722.86 1183.48 4702.13C1174.38 4691.97 1162.79 4684.35 1149.85 4680.04C1136.91 4675.74 1123.06 4674.89 1109.69 4677.58C1078.59 4685.81 1059.2 4716.36 1045.25 4745.37C1004.01 4830.98 982.425 4924.71 982.066 5019.73C982.066 5063.94 987.088 5110.25 1012.05 5146.8" fill="#EBEBEB"/>
<path d="M924.889 5211.24C959.341 5170.37 965.896 5110.68 950.554 5059.35C933.115 5008.44 901.988 4963.32 860.589 4928.93C813.6 4887.03 758.874 4854.72 699.49 4833.81C676.491 4824.5 651.741 4820.31 626.96 4821.53C614.596 4822.27 602.598 4826.01 592.002 4832.43C581.407 4838.85 572.533 4847.74 566.147 4858.36C549.27 4890.72 565.449 4929.91 583.024 4961.85C614.005 5018.26 649.404 5072.13 688.889 5122.95C720.551 5163.82 756.955 5204.27 805.215 5222.68C853.475 5241.09 903.828 5239 929.492 5205.52" fill="#EBEBEB"/>
<path d="M1009.84 5830.28C1011.65 5823.54 1012.63 5816.61 1012.77 5809.63C1014.3 5794.57 1016.11 5775.74 1018.21 5753.84C1021.04 5726.12 1025.28 5698.56 1030.9 5671.27C1038.3 5637.98 1048.33 5605.34 1060.89 5573.63C1073.2 5542.03 1089.97 5512.34 1110.68 5485.48C1127.45 5463.6 1148.9 5445.73 1173.45 5433.18C1190.16 5424.98 1208.04 5419.43 1226.45 5416.72C1233.36 5416.4 1240.23 5415.42 1246.95 5413.79C1240 5413.07 1232.99 5413.07 1226.03 5413.79C1206.75 5415.09 1187.86 5419.81 1170.24 5427.74C1144.35 5439.97 1121.63 5458.01 1103.85 5480.46C1082.33 5507.73 1064.98 5538.05 1052.38 5570.43C1039.51 5602.48 1029.52 5635.62 1022.53 5669.46C1017.19 5697.11 1013.51 5725.05 1011.51 5753.14C1009.84 5777 1009.14 5796.38 1008.72 5808.94C1008.35 5816.07 1008.73 5823.22 1009.84 5830.28V5830.28Z" fill="#E0E0E0"/>
<path d="M1013.74 5787.17C1014.16 5784.03 1014.16 5780.84 1013.74 5777.69V5749.79C1013.74 5725.94 1013.74 5691.63 1014.85 5649.23C1017.08 5564.42 1024.34 5473.06 1038.42 5344.32C1052.37 5223.39 1069.67 5082.52 1088.64 4990.88C1092.68 4970.1 1096.73 4951.41 1100.63 4935.09C1104.54 4918.77 1107.47 4904.4 1110.4 4893.25C1113.32 4882.09 1115.14 4873.72 1116.81 4866.61C1117.75 4863.57 1118.31 4860.43 1118.48 4857.26C1117.01 4860.09 1115.88 4863.09 1115.14 4866.19C1113.05 4873.02 1110.53 4881.81 1107.33 4892.41C1104.12 4903.01 1100.07 4917.93 1096.03 4934.25C1091.98 4950.57 1087.24 4969.26 1082.08 4990.04C1058.69 5098.39 1041.05 5207.89 1029.22 5318.1C1015.27 5447.12 1008.71 5564.56 1008.16 5649.51C1008.16 5692.05 1008.16 5726.5 1009.69 5750.21C1009.69 5761.37 1010.95 5770.44 1011.36 5778.11C1011.79 5781.21 1012.58 5784.26 1013.74 5787.17Z" fill="#E0E0E0"/>
<path d="M1014.3 5560.65C1015.15 5551.14 1015.15 5541.57 1014.3 5532.06C1013.18 5513.79 1010.67 5487.29 1005.51 5454.79C999.289 5416.73 990.907 5379.06 980.402 5341.95C968.023 5296.35 952.265 5251.73 933.258 5208.47C900.496 5129.04 853.671 5056.18 795.033 4993.39C784.78 4982.65 773.88 4972.54 762.395 4963.12C757.374 4958.94 753.05 4954.61 748.447 4951.27L735.894 4942.62C728.319 4936.8 720.244 4931.67 711.764 4927.28C739.51 4948.8 765.834 4972.09 790.57 4997.02C847.466 5060.44 893.169 5133.07 925.726 5211.81C944.427 5254.8 960.269 5298.97 973.149 5344.04C985.423 5385.89 993.653 5423.68 999.929 5455.63C1006.21 5487.57 1009.14 5514.07 1011.23 5532.2C1011.52 5541.75 1012.54 5551.26 1014.3 5560.65Z" fill="#E0E0E0"/>
<path d="M795.451 5960.27L818.047 6271.31H1217.66L1240.25 5960.27H795.451Z" fill="#E0E0E0"/>
<path d="M1287.96 5837.65H756.822V5960.25H1287.96V5837.65Z" fill="#E0E0E0"/>
<path d="M756.822 6259.3V6293.33H781.789H1279.17V6259.3H756.822Z" fill="#EBEBEB"/>
<path d="M806.196 6353.17L781.787 6293.34H1260.2L1231.61 6353.17H806.196Z" fill="#E0E0E0"/>
<path d="M1232.86 6061.94C1232.36 6062.94 1231.76 6063.87 1231.05 6064.73L1225.05 6072.68L1201.76 6102.39L1200.78 6103.79L1199.67 6102.39L1142.62 6023.31H1145.83C1128.81 6047.44 1109.84 6074.22 1090.04 6103.09L1088.22 6105.46L1086.27 6103.23L1019.46 6023.73H1023.36L1019.6 6028.33L959.901 6103.09L957.948 6105.6L956.135 6103.09L900.343 6023.31H903.69L833.95 6102.25L832.835 6103.65L831.858 6102.11L808.983 6065.85L803.404 6056.23C802.673 6055.15 802.109 6053.98 801.73 6052.74C801.73 6052.74 802.567 6053.71 804.102 6055.81L810.239 6065.15C815.818 6073.8 824.187 6085.93 832.974 6101H830.882L899.088 6021.08L900.761 6018.98L902.435 6021.22C919.591 6045.35 938.7 6071.99 959.203 6100.58H955.437C974.267 6076.73 994.213 6051.62 1015 6025.68L1018.62 6021.08L1020.44 6018.71L1022.39 6020.94L1089.06 6100.58H1085.29L1142.2 6021.22L1143.74 6018.98L1145.41 6021.22L1201.2 6101.14H1199.53L1223.66 6072.13L1230.21 6064.59C1232.03 6062.64 1232.72 6061.8 1232.86 6061.94Z" fill="#F5F5F5"/>
<path d="M1245.83 5958.18C1245.83 5959.57 1145.68 5960.69 1022.66 5960.69C899.639 5960.69 799.492 5959.57 799.492 5958.18C799.492 5956.78 899.499 5955.81 1022.66 5955.81C1145.82 5955.81 1245.83 5956.92 1245.83 5958.18Z" fill="#F5F5F5"/>
<path d="M1266.06 6296.69C1266.06 6298.09 1157.27 6299.2 1023.09 6299.2C888.908 6299.2 780.113 6298.09 780.113 6296.69C780.113 6295.3 888.908 6294.18 1023.09 6294.18C1157.27 6294.18 1266.06 6295.3 1266.06 6296.69Z" fill="#F5F5F5"/>
<path d="M6476.2 6353.04C6476.2 6355.13 5137.2 6356.81 3487.15 6356.81C1837.1 6356.81 497.812 6355.13 497.812 6353.04C497.812 6350.95 1835.98 6349.42 3487.15 6349.42C5138.31 6349.42 6476.2 6351.09 6476.2 6353.04Z" fill="#263238"/>
<path d="M6031.12 863.248H614.691V4439.93H6031.12V863.248Z" fill="#FAFAFA"/>
<path d="M6031.12 4439.93C6031.12 4416.36 6030 3045.13 6028.19 863.246L6031.12 866.175H615.108L618.734 862.548C618.734 2135.3 618.734 3346.13 618.734 4439.23L615.387 4435.89L6031.81 4439.23L615.387 4442.58H612.039V4439.23C612.039 3346.13 612.039 2135.3 612.039 862.548V858.922H616.084H6032.09H6035.02V861.851C6032.23 3044.57 6031.12 4416.36 6031.12 4439.93Z" fill="#263238"/>
<path d="M1077.91 1230.49L1085.03 1214.73C1095.43 1222.48 1108.04 1226.68 1121.01 1226.72C1138.03 1226.72 1145.28 1220.59 1145.28 1212.78C1145.28 1189.2 1080.28 1204.69 1080.28 1164.1C1080.28 1146.38 1094.23 1131.46 1124.36 1131.46C1137.15 1131.27 1149.74 1134.6 1160.76 1141.08L1154.35 1156.84C1145.21 1151.46 1134.83 1148.53 1124.22 1148.34C1107.34 1148.34 1100.51 1154.89 1100.51 1163.12C1100.51 1186.41 1165.23 1171.21 1165.23 1211.38C1165.23 1228.82 1151.28 1243.88 1121.01 1243.88C1105.57 1244.26 1090.42 1239.56 1077.91 1230.49Z" fill="#263238"/>
<path d="M1261.73 1206.49H1196.18C1197.42 1212.58 1200.87 1218 1205.87 1221.71C1210.86 1225.42 1217.04 1227.15 1223.24 1226.58C1227.43 1226.76 1231.61 1226.04 1235.51 1224.48C1239.41 1222.91 1242.93 1220.54 1245.83 1217.51L1256.29 1229.51C1252.12 1234.19 1246.94 1237.88 1241.15 1240.29C1235.35 1242.71 1229.09 1243.79 1222.82 1243.45C1216.89 1244.07 1210.89 1243.42 1205.24 1241.53C1199.58 1239.64 1194.39 1236.57 1190.02 1232.52C1185.65 1228.46 1182.2 1223.52 1179.89 1218.02C1177.58 1212.52 1176.48 1206.59 1176.65 1200.63C1176.5 1194.94 1177.51 1189.27 1179.62 1183.98C1181.73 1178.69 1184.9 1173.88 1188.94 1169.86C1192.97 1165.84 1197.79 1162.68 1203.09 1160.59C1208.38 1158.49 1214.05 1157.5 1219.75 1157.67C1225.4 1157.51 1231.02 1158.52 1236.25 1160.65C1241.49 1162.77 1246.22 1165.96 1250.16 1170.01C1254.09 1174.07 1257.14 1178.9 1259.11 1184.19C1261.08 1189.49 1261.92 1195.13 1261.59 1200.77C1262.01 1202.31 1261.87 1204.68 1261.73 1206.49ZM1196.04 1193.66H1243.32C1242.76 1187.89 1239.99 1182.56 1235.61 1178.77C1231.22 1174.98 1225.54 1173.02 1219.75 1173.3C1213.97 1173.11 1208.33 1175.1 1203.94 1178.87C1199.55 1182.64 1196.73 1187.92 1196.04 1193.66Z" fill="#263238"/>
<path d="M1330.92 1237.47C1325.44 1241.39 1318.82 1243.4 1312.09 1243.19C1308.28 1243.67 1304.4 1243.28 1300.76 1242.06C1297.11 1240.84 1293.79 1238.82 1291.03 1236.14C1288.27 1233.46 1286.15 1230.2 1284.82 1226.59C1283.49 1222.98 1282.99 1219.12 1283.36 1215.3V1174.85H1269.27V1159.23H1283.22V1140.12H1302.74V1159.23H1325.06V1174.85H1302.88V1214.6C1302.88 1222.69 1306.93 1227.01 1314.46 1227.01C1318.39 1227.09 1322.25 1225.91 1325.48 1223.67L1330.92 1237.47Z" fill="#263238"/>
<path d="M1427.72 1158.67V1242.36H1408.75V1231.76C1405.4 1235.57 1401.26 1238.6 1396.6 1240.63C1391.95 1242.65 1386.9 1243.63 1381.83 1243.48C1376.91 1243.93 1371.96 1243.28 1367.32 1241.56C1362.69 1239.85 1358.5 1237.12 1355.06 1233.57C1351.62 1230.03 1349.02 1225.76 1347.45 1221.07C1345.88 1216.39 1345.38 1211.42 1345.98 1206.51V1158.67H1365.51V1203.58C1365.51 1218.79 1372.63 1225.9 1385.04 1225.9C1388.28 1226.06 1391.51 1225.5 1394.5 1224.26C1397.49 1223.02 1400.17 1221.13 1402.35 1218.73C1404.52 1216.33 1406.14 1213.47 1407.08 1210.37C1408.01 1207.27 1408.25 1204 1407.77 1200.79V1158.95L1427.72 1158.67Z" fill="#263238"/>
<path d="M1541.94 1200.37C1542.25 1205.99 1541.39 1211.61 1539.42 1216.89C1537.44 1222.16 1534.38 1226.96 1530.45 1230.99C1526.51 1235.01 1521.78 1238.18 1516.56 1240.28C1511.33 1242.38 1505.73 1243.37 1500.1 1243.19C1495.08 1243.37 1490.08 1242.45 1485.46 1240.5C1480.83 1238.55 1476.69 1235.61 1473.32 1231.89V1272.34H1453.79V1158.66H1472.48V1169.54C1475.91 1165.56 1480.21 1162.42 1485.05 1160.37C1489.89 1158.31 1495.13 1157.39 1500.38 1157.69C1505.97 1157.54 1511.53 1158.56 1516.71 1160.67C1521.89 1162.78 1526.58 1165.94 1530.49 1169.94C1534.39 1173.95 1537.42 1178.72 1539.39 1183.96C1541.36 1189.19 1542.23 1194.78 1541.94 1200.37V1200.37ZM1522.14 1200.37C1521.89 1195.51 1520.22 1190.84 1517.35 1186.92C1514.47 1183 1510.5 1180.02 1505.94 1178.33C1501.38 1176.65 1496.42 1176.34 1491.69 1177.45C1486.96 1178.55 1482.65 1181.02 1479.31 1184.56C1475.97 1188.09 1473.74 1192.52 1472.89 1197.31C1472.05 1202.1 1472.63 1207.03 1474.56 1211.49C1476.49 1215.95 1479.69 1219.74 1483.76 1222.4C1487.83 1225.06 1492.59 1226.47 1497.45 1226.45C1500.83 1226.54 1504.2 1225.91 1507.33 1224.62C1510.46 1223.32 1513.28 1221.38 1515.61 1218.92C1517.94 1216.46 1519.72 1213.53 1520.85 1210.34C1521.97 1207.14 1522.41 1203.74 1522.14 1200.37V1200.37Z" fill="#263238"/>
<path d="M1758.85 1132.73L1722.02 1242.08H1709.75L1677.81 1148.77L1645.87 1242.08H1633.87L1597.05 1132.73H1608.91L1640.15 1227.44L1672.79 1133.43H1683.53L1715.61 1227.44L1747.69 1133.01L1758.85 1132.73Z" fill="#263238"/>
<path d="M1774.75 1133.98C1774.75 1131.84 1775.6 1129.78 1777.12 1128.26C1778.64 1126.75 1780.7 1125.89 1782.84 1125.89C1784.99 1125.89 1787.05 1126.75 1788.56 1128.26C1790.08 1129.78 1790.93 1131.84 1790.93 1133.98C1790.93 1136.13 1790.08 1138.19 1788.56 1139.7C1787.05 1141.22 1784.99 1142.07 1782.84 1142.07C1780.7 1142.07 1778.64 1141.22 1777.12 1139.7C1775.6 1138.19 1774.75 1136.13 1774.75 1133.98V1133.98ZM1777.12 1159.93H1788.28V1242.08H1777.12V1159.93Z" fill="#263238"/>
<path d="M1877.13 1232.87V1242.07H1810.31V1234.68L1862.06 1169.26H1811.29V1159.92H1876.29V1167.17L1824.54 1232.87H1877.13Z" fill="#263238"/>
<path d="M1961.08 1191.16V1242.07H1950.48V1229.24C1947.47 1233.82 1943.31 1237.51 1938.41 1239.96C1933.51 1242.41 1928.05 1243.53 1922.59 1243.19C1904.03 1243.19 1892.6 1233.56 1892.6 1219.34C1892.6 1205.11 1900.69 1196.04 1924.26 1196.04H1950.34V1191.02C1950.34 1177.08 1942.39 1169.4 1927.19 1169.4C1917.03 1169.12 1907.11 1172.54 1899.29 1179.03L1894.27 1170.8C1903.72 1163.27 1915.53 1159.32 1927.61 1159.64C1931.99 1158.96 1936.47 1159.3 1940.7 1160.61C1944.94 1161.92 1948.81 1164.19 1952.04 1167.23C1955.27 1170.27 1957.76 1174 1959.33 1178.15C1960.9 1182.3 1961.49 1186.75 1961.08 1191.16V1191.16ZM1949.92 1217.39V1203.44H1924.82C1908.78 1203.44 1903.62 1209.71 1903.62 1218.22C1903.62 1226.73 1911.29 1233.7 1924.4 1233.7C1929.82 1233.96 1935.18 1232.53 1939.76 1229.6C1944.33 1226.68 1947.88 1222.41 1949.92 1217.39V1217.39Z" fill="#263238"/>
<path d="M2032.65 1159.21V1169.95H2030C2026.05 1169.72 2022.11 1170.38 2018.45 1171.86C2014.79 1173.35 2011.51 1175.63 2008.84 1178.54C2006.17 1181.45 2004.18 1184.91 2003.01 1188.69C2001.85 1192.46 2001.54 1196.45 2002.1 1200.36V1242.2H1990.94V1159.91H2001.54V1175.95C2004.42 1170.33 2008.93 1165.72 2014.49 1162.74C2020.04 1159.75 2026.38 1158.52 2032.65 1159.21Z" fill="#263238"/>
<path d="M2126.94 1126.17V1242.08H2116.2V1225.76C2112.92 1231.16 2108.25 1235.59 2102.68 1238.58C2097.12 1241.57 2090.85 1243.02 2084.53 1242.78C2073.44 1242.78 2062.79 1238.37 2054.95 1230.52C2047.1 1222.67 2042.69 1212.03 2042.69 1200.93C2042.69 1189.84 2047.1 1179.19 2054.95 1171.34C2062.79 1163.5 2073.44 1159.09 2084.53 1159.09C2090.71 1158.87 2096.83 1160.26 2102.31 1163.12C2107.79 1165.99 2112.43 1170.22 2115.78 1175.41V1126.17H2126.94ZM2115.92 1200.93C2115.62 1194.96 2113.57 1189.21 2110.03 1184.39C2106.49 1179.57 2101.61 1175.89 2096 1173.82C2090.39 1171.74 2084.3 1171.36 2078.47 1172.72C2072.65 1174.08 2067.35 1177.11 2063.24 1181.45C2059.12 1185.79 2056.38 1191.25 2055.33 1197.14C2054.29 1203.02 2055 1209.09 2057.37 1214.58C2059.74 1220.07 2063.67 1224.74 2068.67 1228.02C2073.67 1231.3 2079.53 1233.03 2085.51 1233.01C2089.67 1233.08 2093.79 1232.29 2097.62 1230.67C2101.45 1229.06 2104.91 1226.68 2107.77 1223.66C2110.63 1220.64 2112.83 1217.06 2114.23 1213.15C2115.63 1209.24 2116.21 1205.08 2115.92 1200.93V1200.93Z" fill="#263238"/>
<path d="M1134.26 2466.31L1138.73 2457.38C1148.66 2466.38 1161.59 2471.35 1174.99 2471.33C1195.49 2471.33 1204.42 2462.68 1204.42 2451.94C1204.42 2421.81 1136.91 2440.22 1136.91 2399.77C1136.91 2383.59 1149.47 2369.65 1177.22 2369.65C1189.28 2369.51 1201.11 2372.91 1211.25 2379.41L1207.35 2388.62C1198.38 2382.77 1187.93 2379.62 1177.22 2379.55C1157.28 2379.55 1148.35 2388.48 1148.35 2399.36C1148.35 2429.48 1215.86 2411.35 1215.86 2451.24C1215.86 2467.42 1203.03 2481.23 1174.99 2481.23C1160.01 2481.59 1145.46 2476.26 1134.26 2466.31V2466.31Z" fill="#FFCE46"/>
<path d="M1282.09 2474.66C1277.13 2478.56 1270.96 2480.58 1264.66 2480.37C1261.42 2480.75 1258.14 2480.39 1255.07 2479.33C1251.99 2478.26 1249.19 2476.52 1246.87 2474.23C1244.56 2471.94 1242.79 2469.17 1241.69 2466.1C1240.59 2463.04 1240.19 2459.76 1240.53 2456.52V2406.73H1226.58V2397.24H1240.53V2379.25H1251.68V2397.24H1276.79V2406.73H1251.68V2455.83C1251.53 2457.75 1251.78 2459.68 1252.41 2461.51C1253.04 2463.33 1254.04 2465 1255.35 2466.42C1256.66 2467.83 1258.25 2468.96 1260.02 2469.73C1261.79 2470.5 1263.7 2470.9 1265.63 2470.89C1270.09 2471 1274.45 2469.52 1277.91 2466.71L1282.09 2474.66Z" fill="#FFCE46"/>
<path d="M1371.09 2441.88H1302.19C1302.4 2445.9 1303.41 2449.83 1305.16 2453.46C1306.9 2457.09 1309.35 2460.33 1312.36 2463C1315.37 2465.68 1318.89 2467.73 1322.69 2469.03C1326.5 2470.34 1330.53 2470.87 1334.55 2470.61C1339.3 2470.76 1344.02 2469.86 1348.38 2467.98C1352.75 2466.1 1356.64 2463.29 1359.79 2459.73L1366.07 2466.98C1360.17 2473.11 1352.62 2477.38 1344.33 2479.27C1336.04 2481.16 1327.38 2480.58 1319.41 2477.62C1311.44 2474.66 1304.51 2469.44 1299.47 2462.59C1294.43 2455.74 1291.49 2447.58 1291.03 2439.09C1290.72 2433.64 1291.54 2428.19 1293.44 2423.08C1295.33 2417.96 1298.27 2413.29 1302.05 2409.37C1305.84 2405.44 1310.39 2402.33 1315.43 2400.25C1320.47 2398.16 1325.89 2397.14 1331.34 2397.24C1336.78 2397.13 1342.18 2398.16 1347.19 2400.25C1352.21 2402.34 1356.74 2405.45 1360.5 2409.38C1364.25 2413.32 1367.14 2417.99 1368.99 2423.11C1370.84 2428.22 1371.6 2433.66 1371.23 2439.09C1371.23 2439.37 1371.09 2440.9 1371.09 2441.88ZM1302.19 2433.65H1360.63C1360.12 2426.25 1356.82 2419.31 1351.39 2414.25C1345.97 2409.19 1338.83 2406.38 1331.41 2406.38C1323.99 2406.38 1316.85 2409.19 1311.42 2414.25C1306 2419.31 1302.7 2426.25 1302.19 2433.65Z" fill="#FFCE46"/>
<path d="M1477.37 2438.54C1477.66 2444.04 1476.81 2449.54 1474.86 2454.7C1472.92 2459.85 1469.92 2464.54 1466.06 2468.48C1462.21 2472.41 1457.58 2475.5 1452.46 2477.55C1447.35 2479.6 1441.87 2480.57 1436.36 2480.38C1430.2 2480.6 1424.09 2479.23 1418.62 2476.39C1413.14 2473.56 1408.49 2469.36 1405.12 2464.2V2510.65H1393.96V2397.81H1404.56V2413.02C1407.91 2407.66 1412.62 2403.28 1418.2 2400.31C1423.78 2397.35 1430.04 2395.91 1436.36 2396.14C1441.92 2395.95 1447.45 2396.93 1452.6 2399.01C1457.76 2401.1 1462.42 2404.24 1466.28 2408.23C1470.15 2412.23 1473.13 2416.99 1475.04 2422.21C1476.95 2427.43 1477.74 2432.99 1477.37 2438.54V2438.54ZM1466.35 2438.54C1466.1 2432.5 1464.08 2426.66 1460.54 2421.76C1457.01 2416.85 1452.1 2413.1 1446.44 2410.96C1440.79 2408.82 1434.62 2408.4 1428.73 2409.74C1422.83 2411.07 1417.45 2414.12 1413.27 2418.49C1409.09 2422.86 1406.29 2428.36 1405.22 2434.32C1404.14 2440.27 1404.84 2446.4 1407.23 2451.96C1409.61 2457.52 1413.58 2462.25 1418.64 2465.57C1423.69 2468.89 1429.62 2470.64 1435.66 2470.62C1439.82 2470.67 1443.95 2469.86 1447.79 2468.24C1451.62 2466.63 1455.09 2464.24 1457.96 2461.23C1460.84 2458.23 1463.07 2454.66 1464.51 2450.76C1465.95 2446.85 1466.58 2442.7 1466.35 2438.54Z" fill="#FFCE46"/>
<path d="M1606.4 2448.15C1606.4 2466.56 1592.45 2480.65 1566.64 2480.65C1552.2 2481.16 1538.09 2476.18 1527.17 2466.7L1532.61 2457.78C1541.89 2466.23 1554.1 2470.73 1566.64 2470.33C1584.78 2470.33 1594.54 2461.96 1594.54 2448.29C1594.54 2434.62 1585.2 2426.53 1564.83 2426.53H1557.02V2418.3L1587.43 2380.23H1531.64V2370.18H1602.21V2378.13L1571.11 2417.19C1594.68 2418.3 1606.4 2430.58 1606.4 2448.15Z" fill="#FFCE46"/>
<path d="M4998.96 3861.94H4432.25C4418.46 3861.94 4407.29 3873.11 4407.29 3886.9V4178.28C4407.29 4192.06 4418.46 4203.24 4432.25 4203.24H4998.96C5012.75 4203.24 5023.93 4192.06 5023.93 4178.28V3886.9C5023.93 3873.11 5012.75 3861.94 4998.96 3861.94Z" fill="#E0E0E0"/>
<path d="M4681.79 4046.74C4681.79 4062.5 4670.07 4071.57 4646.78 4071.57H4604.1V3978.54H4644.68C4665.47 3978.54 4677.46 3987.32 4677.46 4002.53C4677.64 4007.06 4676.39 4011.53 4673.88 4015.31C4671.38 4019.09 4667.75 4021.98 4663.51 4023.59C4668.87 4024.54 4673.69 4027.42 4677.06 4031.69C4680.43 4035.96 4682.11 4041.31 4681.79 4046.74V4046.74ZM4613.86 3986.63V4020.38H4643.57C4658.35 4020.38 4667 4014.66 4667 4003.5C4667 3992.35 4658.35 3986.63 4643.57 3986.63H4613.86ZM4671.88 4045.91C4671.88 4033.77 4663.1 4028.47 4646.78 4028.47H4613.86V4063.48H4646.78C4663.1 4063.48 4672.58 4058.88 4672.58 4045.91H4671.88Z" fill="white"/>
<path d="M4754.88 4028.18V4071.56H4745.95V4060.68C4743.31 4064.56 4739.68 4067.68 4735.45 4069.72C4731.21 4071.75 4726.51 4072.63 4721.82 4072.25C4706.06 4072.25 4696.3 4063.89 4696.3 4051.89C4696.3 4039.9 4703.27 4032.08 4723.36 4032.08H4745.53V4027.76C4745.53 4015.9 4738.7 4009.35 4725.73 4009.35C4717.23 4009.25 4708.98 4012.16 4702.43 4017.58L4698.25 4010.6C4706.17 4004.32 4716.03 4000.96 4726.15 4001.12C4729.91 4000.5 4733.77 4000.76 4737.43 4001.87C4741.08 4002.98 4744.42 4004.92 4747.2 4007.54C4749.98 4010.16 4752.12 4013.38 4753.45 4016.96C4754.78 4020.54 4755.27 4024.38 4754.88 4028.18ZM4745.53 4050.5V4039.06H4723.63C4709.69 4039.06 4705.64 4044.5 4705.64 4051.61C4705.64 4058.73 4712.2 4064.72 4723.36 4064.72C4728.08 4065.01 4732.78 4063.79 4736.77 4061.23C4740.76 4058.67 4743.83 4054.91 4745.53 4050.5V4050.5Z" fill="white"/>
<path d="M4773.71 4036.56C4773.57 4031.82 4774.41 4027.11 4776.18 4022.71C4777.94 4018.31 4780.6 4014.32 4783.98 4011C4787.35 4007.67 4791.38 4005.08 4795.81 4003.38C4800.23 4001.68 4804.96 4000.92 4809.69 4001.13C4815.17 4000.69 4820.67 4001.76 4825.59 4004.21C4830.51 4006.67 4834.66 4010.43 4837.59 4015.08L4830.62 4019.82C4828.36 4016.54 4825.31 4013.87 4821.75 4012.07C4818.19 4010.26 4814.24 4009.38 4810.25 4009.5C4804.09 4010.9 4798.59 4014.36 4794.64 4019.3C4790.7 4024.24 4788.56 4030.38 4788.56 4036.7C4788.56 4043.02 4790.7 4049.15 4794.64 4054.09C4798.59 4059.04 4804.09 4062.49 4810.25 4063.9C4814.23 4064.07 4818.19 4063.23 4821.75 4061.45C4825.32 4059.66 4828.37 4057 4830.62 4053.71L4837.59 4058.6C4834.6 4063.19 4830.44 4066.91 4825.54 4069.36C4820.63 4071.81 4815.16 4072.91 4809.69 4072.54C4804.92 4072.74 4800.15 4071.95 4795.69 4070.21C4791.24 4068.47 4787.19 4065.82 4783.81 4062.44C4780.43 4059.06 4777.79 4055.01 4776.05 4050.56C4774.31 4046.1 4773.51 4041.34 4773.71 4036.56V4036.56Z" fill="white"/>
<path d="M4880.41 4036.41L4863.95 4051.61V4071.56H4853.91V3972.95H4863.39V4039.76L4905.23 4001.68H4916.81L4887.38 4030.97L4920.02 4072.81H4908.58L4880.41 4036.41Z" fill="white"/>
<path d="M4529.05 4003.79C4521.68 4013.39 4513.26 4022.14 4503.94 4029.87V4029.87V4026.66C4513.32 4034.27 4521.79 4042.93 4529.19 4052.47C4519.06 4046.08 4509.7 4038.55 4501.29 4030.01L4499.62 4028.34L4501.29 4026.8C4509.6 4018.06 4518.92 4010.33 4529.05 4003.79V4003.79Z" fill="white"/>
<path d="M4568.95 4028.33C4546.87 4031.3 4524.49 4031.3 4502.41 4028.33C4524.49 4025.35 4546.87 4025.35 4568.95 4028.33V4028.33Z" fill="white"/>
<path d="M5722.44 3861.94H5155.74C5141.95 3861.94 5130.77 3873.11 5130.77 3886.9V4178.28C5130.77 4192.06 5141.95 4203.24 5155.74 4203.24H5722.44C5736.23 4203.24 5747.41 4192.06 5747.41 4178.28V3886.9C5747.41 3873.11 5736.23 3861.94 5722.44 3861.94Z" fill="#FFCE46"/>
<path d="M5324.51 3978.54V4071.57H5316.42L5256.72 3996.11V4071.57H5246.96V3978.54H5255.05L5314.89 4054V3978.54H5324.51Z" fill="white"/>
<path d="M5413.64 4039.49H5355.2C5355.39 4042.93 5356.28 4046.3 5357.79 4049.4C5359.31 4052.49 5361.43 4055.25 5364.03 4057.51C5366.63 4059.78 5369.66 4061.5 5372.93 4062.57C5376.21 4063.64 5379.66 4064.05 5383.1 4063.76C5387.12 4063.89 5391.12 4063.15 5394.83 4061.58C5398.54 4060.02 5401.86 4057.67 5404.58 4054.7L5409.88 4060.83C5404.85 4066.07 5398.39 4069.71 5391.3 4071.3C5384.22 4072.89 5376.82 4072.36 5370.04 4069.77C5363.25 4067.18 5357.38 4062.65 5353.15 4056.75C5348.93 4050.84 5346.54 4043.82 5346.27 4036.56C5345.98 4031.92 5346.63 4027.27 5348.21 4022.89C5349.78 4018.51 5352.23 4014.5 5355.42 4011.1C5358.6 4007.71 5362.44 4005.01 5366.71 4003.16C5370.98 4001.31 5375.59 4000.35 5380.24 4000.35C5384.89 4000.35 5389.49 4001.31 5393.76 4003.16C5398.03 4005.01 5401.88 4007.71 5405.06 4011.1C5408.24 4014.5 5410.7 4018.51 5412.27 4022.89C5413.84 4027.27 5414.5 4031.92 5414.2 4036.56C5413.78 4037.4 5413.64 4038.52 5413.64 4039.49ZM5355.2 4032.52H5404.72C5404.25 4026.27 5401.44 4020.44 5396.84 4016.18C5392.25 4011.92 5386.22 4009.55 5379.96 4009.55C5373.7 4009.55 5367.67 4011.92 5363.07 4016.18C5358.48 4020.44 5355.67 4026.27 5355.2 4032.52V4032.52Z" fill="white"/>
<path d="M5475.56 4071.57L5453.39 4042.28L5431.07 4071.57H5420.33L5448.22 4035.72L5421.86 4001.69H5432.46L5453.52 4029.58L5474.45 4001.69H5484.77L5458.55 4035.72L5486.44 4071.57H5475.56Z" fill="white"/>
<path d="M5538.75 4067.23C5534.51 4070.93 5529.04 4072.92 5523.41 4072.81C5520.65 4073.11 5517.86 4072.8 5515.24 4071.89C5512.63 4070.97 5510.25 4069.48 5508.28 4067.53C5506.31 4065.58 5504.81 4063.21 5503.88 4060.6C5502.95 4057.99 5502.61 4055.2 5502.9 4052.44V4010.6H5490.49V4002.65H5502.9V3987.3H5512.39V4002.65H5533.59V4010.6H5512.39V4052.44C5512.15 4054.12 5512.29 4055.82 5512.81 4057.43C5513.32 4059.05 5514.2 4060.52 5515.37 4061.74C5516.53 4062.96 5517.97 4063.9 5519.55 4064.49C5521.14 4065.08 5522.84 4065.3 5524.52 4065.13C5528.27 4065.25 5531.93 4064.01 5534.84 4061.65L5538.75 4067.23Z" fill="white"/>
<path d="M5602.91 4052.47C5610.28 4042.86 5618.7 4034.11 5628.01 4026.39V4026.39V4029.59C5618.64 4021.98 5610.17 4013.32 5602.77 4003.79C5612.92 4010.2 5622.28 4017.79 5630.66 4026.39L5632.48 4027.92L5630.66 4029.59C5622.35 4038.29 5613.03 4045.97 5602.91 4052.47Z" fill="white"/>
<path d="M5563.02 4027.92C5574.01 4025.86 5585.2 4025.16 5596.36 4025.83C5607.47 4025.16 5618.62 4025.86 5629.56 4027.92C5618.64 4030.15 5607.47 4030.9 5596.36 4030.15C5585.2 4030.89 5573.99 4030.14 5563.02 4027.92Z" fill="white"/>
<path d="M1264.11 2024.83C1339.91 2024.83 1401.36 1963.38 1401.36 1887.58C1401.36 1811.78 1339.91 1750.34 1264.11 1750.34C1188.31 1750.34 1126.86 1811.78 1126.86 1887.58C1126.86 1963.38 1188.31 2024.83 1264.11 2024.83Z" fill="#FFCE46"/>
<path d="M4062.22 1895.55C4061.05 1884.38 4059.18 1873.29 4056.64 1862.35C4048.68 1832.77 4030.99 1806.73 4006.43 1788.43C3989.8 1775.76 3970.38 1767.25 3949.8 1763.6C3926.19 1759.3 3901.87 1761.42 3879.36 1769.74C3854.49 1778.8 3832.88 1795.06 3817.29 1816.46C3800.45 1839.36 3791.36 1867.05 3791.36 1895.48C3791.36 1923.91 3800.45 1951.59 3817.29 1974.49C3825.04 1985.22 3834.46 1994.64 3845.19 2002.39C3855.49 2010.21 3866.92 2016.42 3879.08 2020.8C3901.62 2029.01 3925.93 2031.08 3949.52 2026.8C3970.1 2023.14 3989.52 2014.63 4006.15 2001.97C4030.71 1983.67 4048.4 1957.63 4056.36 1928.05C4058.88 1917.15 4060.75 1906.11 4061.94 1894.99C4062.83 1906.32 4061.84 1917.73 4059.01 1928.74C4051.93 1959.52 4034.38 1986.88 4009.36 2006.15C3992.12 2019.47 3972.01 2028.59 3950.64 2032.8C3925.92 2037.44 3900.42 2035.46 3876.71 2027.08C3863.95 2022.55 3851.96 2016.11 3841.15 2007.97C3829.66 1999.74 3819.58 1989.71 3811.3 1978.26C3793.39 1954.19 3783.71 1924.99 3783.71 1894.99C3783.71 1864.99 3793.39 1835.79 3811.3 1811.72C3819.54 1800.2 3829.62 1790.11 3841.15 1781.87C3851.96 1773.73 3863.95 1767.29 3876.71 1762.76C3900.42 1754.37 3925.92 1752.4 3950.64 1757.04C3972.01 1761.25 3992.12 1770.37 4009.36 1783.68C4034.38 1802.95 4051.93 1830.32 4059.01 1861.1C4062 1872.32 4063.08 1883.96 4062.22 1895.55V1895.55Z" fill="#263238"/>
<path d="M5392.02 1879.64C5391.04 1879.64 5392.02 1867.37 5386.3 1846.45C5378.28 1816.93 5360.66 1790.92 5336.23 1772.52C5318.28 1759.02 5297.23 1750.23 5275.01 1746.97C5252.78 1743.7 5230.1 1746.06 5209.02 1753.83C5196.89 1758.22 5185.47 1764.38 5175.13 1772.1C5164.43 1779.89 5155.02 1789.3 5147.23 1800C5130.38 1822.92 5121.28 1850.63 5121.28 1879.08C5121.28 1907.54 5130.38 1935.25 5147.23 1958.17C5162.82 1979.57 5184.43 1995.83 5209.3 2004.89C5230.38 2012.66 5253.06 2015.02 5275.29 2011.76C5297.51 2008.49 5318.56 1999.71 5336.51 1986.2C5360.94 1967.8 5378.56 1941.8 5386.58 1912.28C5392.02 1891.36 5391.32 1879.08 5392.3 1879.08C5393.1 1890.46 5392.11 1901.9 5389.37 1912.98C5383.18 1938.89 5369.65 1962.48 5350.41 1980.91C5331.16 1999.34 5307.02 2011.83 5280.86 2016.89C5256.19 2021.66 5230.7 2019.69 5207.07 2011.17C5194.26 2006.73 5182.22 2000.33 5171.36 1992.2C5159.84 1983.96 5149.76 1973.87 5141.51 1962.35C5123.6 1938.29 5113.93 1909.08 5113.93 1879.08C5113.93 1849.08 5123.6 1819.88 5141.51 1795.81C5149.76 1784.29 5159.84 1774.21 5171.36 1765.97C5182.22 1757.84 5194.26 1751.44 5207.07 1747C5230.7 1738.48 5256.19 1736.5 5280.86 1741.28C5307.02 1746.34 5331.16 1758.83 5350.41 1777.26C5369.65 1795.69 5383.18 1819.27 5389.37 1845.19C5392.07 1856.46 5392.97 1868.09 5392.02 1879.64Z" fill="#263238"/>
<path d="M1321.3 1850.48C1305.37 1872.54 1287.49 1893.13 1267.88 1911.99C1263 1917.29 1258.12 1922.31 1253.93 1927.06L1251.42 1929.71L1248.91 1927.19C1233.55 1913.86 1219.53 1899.05 1207.07 1882.98C1223.87 1894.39 1239.44 1907.53 1253.51 1922.17H1248.63C1253.09 1917.29 1257.84 1912.13 1262.58 1906.97C1280.44 1886.43 1300.09 1867.53 1321.3 1850.48V1850.48Z" fill="white"/>
<path d="M2420.96 1859.69H1427.31V1915.48H2420.96V1859.69Z" fill="#FFCE46"/>
<path d="M2590.85 2024.83C2666.65 2024.83 2728.1 1963.38 2728.1 1887.58C2728.1 1811.78 2666.65 1750.34 2590.85 1750.34C2515.05 1750.34 2453.6 1811.78 2453.6 1887.58C2453.6 1963.38 2515.05 2024.83 2590.85 2024.83Z" fill="#FFCE46"/>
<path d="M2648.03 1850.48C2632.05 1872.5 2614.18 1893.09 2594.61 1911.99C2589.59 1917.29 2584.85 1922.31 2580.66 1927.06L2578.29 1929.71L2575.78 1927.19C2560.33 1913.96 2546.3 1899.14 2533.94 1882.98C2550.65 1894.46 2566.16 1907.59 2580.24 1922.17H2575.36L2589.31 1906.97C2607.15 1886.42 2626.8 1867.51 2648.03 1850.48Z" fill="white"/>
<path d="M3747.54 1859.69H2753.89V1915.48H3747.54V1859.69Z" fill="#FFCE46"/>
<path d="M5094.79 1879.63C5094.79 1881.58 4872.32 1883.26 4597.96 1883.26C4323.6 1883.26 4100.71 1881.58 4100.71 1879.63C4100.71 1877.68 4323.88 1876.01 4597.54 1876.01C4871.2 1876.01 5094.79 1877.68 5094.79 1879.63Z" fill="#263238"/>
<path d="M6031.12 1445.01C6031.12 1446.97 4818.48 1448.64 3322.97 1448.64C1827.47 1448.64 614.691 1446.97 614.691 1445.01C614.691 1443.06 1827.05 1441.39 3322.97 1441.39C4818.9 1441.39 6031.12 1442.92 6031.12 1445.01Z" fill="#E0E0E0"/>
<path d="M5339.02 2665.05C5339.02 2667.01 4413.99 2668.68 3273.19 2668.68C2132.38 2668.68 1206.93 2667.01 1206.93 2665.05C1206.93 2663.1 2131.82 2661.43 3273.19 2661.43C4414.55 2661.43 5339.02 2663.1 5339.02 2665.05Z" fill="#263238"/>
<path d="M3049.18 2828.11C3047.61 2828.28 3046.02 2828.28 3044.44 2828.11H3030.49L2976.79 2828.81L2779.43 2829.92L2128.2 2830.9L1476.82 2829.92L1279.32 2828.81L1225.76 2828.11H1211.81C1210.19 2828.29 1208.55 2828.29 1206.93 2828.11H1211.81H1225.76L1279.32 2827.41L1476.82 2826.3L2128.2 2825.18L2779.43 2826.3L2976.79 2827.41L3030.49 2828.11H3044.44H3049.18Z" fill="#263238"/>
<path d="M4917.1 3065.35C4917.1 3067.3 4161.67 3068.97 3229.39 3068.97C2297.11 3068.97 1541.68 3067.3 1541.68 3065.35C1541.68 3063.39 2296.97 3061.72 3229.39 3061.72C4161.81 3061.72 4917.1 3063.39 4917.1 3065.35Z" fill="#263238"/>
<path d="M1330.92 3119.2C1316.32 3119.2 1302.05 3114.87 1289.92 3106.76C1277.78 3098.64 1268.32 3087.11 1262.74 3073.62C1257.16 3060.13 1255.71 3045.29 1258.57 3030.97C1261.43 3016.65 1268.47 3003.51 1278.8 2993.19C1289.13 2982.88 1302.29 2975.86 1316.61 2973.03C1330.94 2970.2 1345.78 2971.68 1359.26 2977.29C1372.74 2982.89 1384.25 2992.37 1392.34 3004.52C1400.43 3016.68 1404.74 3030.96 1404.71 3045.56C1404.63 3065.09 1396.83 3083.8 1383.01 3097.6C1369.18 3111.4 1350.46 3119.16 1330.92 3119.2V3119.2ZM1330.92 2985.72C1319.09 2985.72 1307.52 2989.23 1297.68 2995.8C1287.84 3002.38 1280.17 3011.72 1275.64 3022.66C1271.11 3033.59 1269.93 3045.62 1272.24 3057.23C1274.55 3068.84 1280.24 3079.5 1288.61 3087.87C1296.98 3096.23 1307.64 3101.93 1319.25 3104.24C1330.86 3106.55 1342.89 3105.37 1353.82 3100.84C1364.76 3096.31 1374.1 3088.64 1380.68 3078.8C1387.25 3068.96 1390.76 3057.39 1390.76 3045.56C1390.72 3029.7 1384.41 3014.5 1373.19 3003.28C1361.98 2992.07 1346.78 2985.76 1330.92 2985.72V2985.72Z" fill="#E0E0E0"/>
<path d="M4232.66 3246.12C4232.66 3246.12 4230.43 3246.12 4225.82 3246.12H4205.46L4127.07 3246.82L3838.77 3247.93L2887.23 3249.89L1935.98 3248.77L1647.67 3247.65L1569.43 3246.96H1548.92H1542.09H1548.92H1569.43L1647.67 3246.26L1935.98 3245.14L2887.23 3244.03L3838.21 3245.14L4126.51 3246.26L4204.9 3246.96H4225.26C4230.43 3245.84 4232.66 3246.12 4232.66 3246.12Z" fill="#263238"/>
<path d="M1330.92 3319.63C1316.33 3319.63 1302.06 3315.3 1289.93 3307.19C1277.8 3299.08 1268.34 3287.56 1262.76 3274.08C1257.17 3260.6 1255.71 3245.76 1258.56 3231.45C1261.4 3217.13 1268.43 3203.99 1278.75 3193.67C1289.07 3183.35 1302.22 3176.32 1316.53 3173.47C1330.84 3170.63 1345.68 3172.09 1359.16 3177.67C1372.64 3183.26 1384.17 3192.71 1392.27 3204.85C1400.38 3216.98 1404.71 3231.25 1404.71 3245.84C1404.67 3265.4 1396.89 3284.15 1383.06 3297.97C1369.23 3311.8 1350.48 3319.59 1330.92 3319.63V3319.63ZM1330.92 3186C1319.09 3186 1307.52 3189.51 1297.68 3196.09C1287.84 3202.66 1280.17 3212.01 1275.64 3222.94C1271.11 3233.88 1269.93 3245.91 1272.24 3257.52C1274.55 3269.12 1280.24 3279.78 1288.61 3288.15C1296.98 3296.52 1307.64 3302.22 1319.25 3304.53C1330.86 3306.84 1342.89 3305.65 1353.82 3301.12C1364.76 3296.59 1374.1 3288.93 1380.68 3279.09C1387.25 3269.25 1390.76 3257.68 1390.76 3245.84C1390.65 3230.03 1384.3 3214.9 1373.1 3203.75C1361.89 3192.6 1346.73 3186.32 1330.92 3186.28V3186Z" fill="#E0E0E0"/>
<path d="M1330.92 3278.63C1348.87 3278.63 1363.42 3264.08 1363.42 3246.13C1363.42 3228.18 1348.87 3213.63 1330.92 3213.63C1312.97 3213.63 1298.42 3228.18 1298.42 3246.13C1298.42 3264.08 1312.97 3278.63 1330.92 3278.63Z" fill="#FFCE46"/>
<path d="M4917.1 3466.63C4917.1 3468.58 4161.67 3470.25 3229.39 3470.25C2297.11 3470.25 1541.68 3468.58 1541.68 3466.63C1541.68 3464.68 2296.97 3463 3229.39 3463C4161.81 3463 4917.1 3464.54 4917.1 3466.63Z" fill="#263238"/>
<path d="M1330.92 3520.48C1316.33 3520.48 1302.06 3516.15 1289.93 3508.05C1277.8 3499.94 1268.34 3488.42 1262.76 3474.93C1257.17 3461.45 1255.71 3446.62 1258.56 3432.3C1261.4 3417.99 1268.43 3404.84 1278.75 3394.52C1289.07 3384.2 1302.22 3377.18 1316.53 3374.33C1330.84 3371.48 1345.68 3372.94 1359.16 3378.53C1372.64 3384.11 1384.17 3393.57 1392.27 3405.7C1400.38 3417.84 1404.71 3432.1 1404.71 3446.7C1404.67 3466.25 1396.89 3485 1383.06 3498.83C1369.23 3512.66 1350.48 3520.45 1330.92 3520.48V3520.48ZM1330.92 3387C1319.08 3387 1307.51 3390.51 1297.67 3397.09C1287.82 3403.67 1280.15 3413.03 1275.63 3423.97C1271.1 3434.91 1269.93 3446.95 1272.25 3458.56C1274.57 3470.17 1280.28 3480.83 1288.66 3489.2C1297.04 3497.56 1307.72 3503.25 1319.34 3505.54C1330.95 3507.83 1342.99 3506.63 1353.92 3502.08C1364.85 3497.53 1374.19 3489.84 1380.74 3479.98C1387.3 3470.12 1390.79 3458.54 1390.76 3446.7C1390.72 3430.85 1384.4 3415.67 1373.19 3404.48C1361.97 3393.28 1346.77 3387 1330.92 3387V3387Z" fill="#E0E0E0"/>
<path d="M2557.77 3493.96C2533.96 3503.14 2513.35 3519.08 2498.48 3539.83C2483.61 3560.57 2475.13 3585.21 2474.09 3610.71C2473.11 3642.93 2474.09 3680.45 2449.12 3700.67C2424.15 3720.9 2389.98 3710.86 2361.53 3721.46C2325.26 3735.4 2307.27 3775.44 2299.32 3813.23C2291.37 3851.03 2289 3891.48 2267.8 3923.84C2246.59 3956.2 2213.12 3973.5 2182.02 3993.58C2150.91 4013.67 2120.09 4041.7 2114.37 4078.53C2106.14 4131.25 2152.59 4185.09 2133.48 4235.02C2121.2 4267.1 2086.61 4283.56 2060.67 4306.02C2043.77 4320.63 2029.98 4338.5 2020.14 4358.56C2010.29 4378.62 2004.59 4400.46 2003.36 4422.77C2002.14 4445.08 2005.42 4467.41 2013.01 4488.42C2020.61 4509.44 2032.36 4528.71 2047.56 4545.09C2059.14 4558.79 2073.83 4569.55 2090.39 4576.46C2106.96 4583.37 2124.93 4586.25 2142.82 4584.84C2177.41 4579.96 2204.89 4554.71 2230.83 4531.56C2326.1 4446.82 2432.42 4375.4 2546.9 4319.27C2576.46 4305.32 2608.82 4289.28 2624.17 4259.99C2630.97 4244.69 2635.26 4228.39 2636.86 4211.73C2668.85 3992.09 2700.88 3772.46 2732.96 3552.83" fill="#263238"/>
<path d="M2883.89 3285.16C2870.92 3236.76 2899.23 3184.17 2941.21 3156.69C2983.2 3129.22 3035.36 3122.8 3085.44 3124.2C3135.51 3125.59 3194.09 3138.14 3222.54 3181.52C3240.26 3208.44 3243.33 3242.89 3259.23 3271.07C3304 3350.57 3428.42 3351.97 3476.96 3429.24C3523.12 3502.61 3475.98 3598.71 3487 3684.63C3494.39 3742.23 3527.73 3792.58 3553.81 3844.61C3579.89 3896.64 3599.14 3958.15 3577.1 4011.99C3553.39 4069.45 3486.72 4106.69 3479.47 4168.48C3471.24 4245.06 3562.04 4315.22 3534.14 4387.05C3513.5 4440.33 3436.51 4460.55 3427.72 4517.04C3423.26 4547.31 3441.67 4575.76 3449.34 4605.19C3469.98 4679.96 3421.44 4762.11 3351.7 4796.7C3281.96 4831.29 3198.28 4825.85 3125.05 4800.61C3066.48 4780.31 3012.57 4748.47 2966.53 4706.96C2920.48 4665.46 2883.23 4615.13 2856.99 4558.97C2830.74 4502.81 2816.03 4441.96 2813.73 4380.01C2811.42 4318.06 2821.57 4256.29 2843.58 4198.33" fill="#263238"/>
<path d="M2098.89 4030.11C2096.33 4025.83 2092.54 4022.43 2088.01 4020.35C2082.5 4018.03 2076.38 4017.54 2070.57 4018.95C2066.63 4019.76 2062.97 4021.57 2059.94 4024.21C2056.91 4026.85 2054.62 4030.23 2053.28 4034.02C2051.83 4038.84 2051.5 4043.94 2052.29 4048.91C2053.09 4053.89 2055 4058.62 2057.88 4062.75C2061.38 4067.62 2066.06 4071.52 2071.47 4074.11C2076.88 4076.69 2082.86 4077.87 2088.84 4077.54C2095.77 4077.33 2102.59 4075.76 2108.91 4072.91C2115.23 4070.06 2120.93 4065.99 2125.67 4060.94C2136.33 4049.23 2143.99 4035.11 2147.98 4019.79C2157.75 3987.57 2154.96 3950.05 2158.44 3910.02C2160.11 3889.04 2165.69 3868.55 2174.9 3849.63C2179.96 3839.62 2186.71 3830.56 2194.85 3822.84C2203.4 3815.1 2213.41 3809.13 2224.28 3805.27C2246.68 3799.19 2269.61 3795.27 2292.76 3793.55C2304.31 3793.17 2315.66 3790.51 2326.17 3785.72C2336.67 3780.93 2346.13 3774.11 2354 3765.66C2368.92 3747.39 2370.18 3721.58 2367.94 3697.03C2364.48 3671.56 2362.8 3645.88 2362.92 3620.18C2365 3593.92 2373.84 3568.64 2388.59 3546.81C2402.54 3525.1 2423.21 3508.55 2447.45 3499.67C2471.16 3493.47 2495.91 3492.28 2520.12 3496.18C2542.99 3497.86 2567.12 3498.83 2584.14 3485.44C2601.15 3472.05 2605.76 3449.74 2606.87 3429.65C2606.86 3408.81 2608.91 3388.02 2613.01 3367.58C2622.85 3330.87 2644.88 3298.6 2675.5 3276.08C2700.71 3257.61 2731.01 3247.38 2762.25 3246.79C2785.62 3246.2 2808.84 3250.67 2830.32 3259.9C2843.94 3265.47 2856.6 3273.14 2867.84 3282.64C2871.79 3285.82 2875.48 3289.32 2878.86 3293.1C2878.86 3293.1 2874.81 3289.75 2866.86 3283.75C2855.37 3274.91 2842.7 3267.73 2829.2 3262.41C2807.97 3253.98 2785.22 3250.04 2762.39 3250.84C2732.15 3251.88 2702.94 3262.15 2678.71 3280.27C2649.32 3302.27 2628.27 3333.59 2619.01 3369.12C2615.17 3389.2 2613.3 3409.62 2613.43 3430.07C2613.03 3441.14 2611.2 3452.11 2607.99 3462.71C2604.32 3473.74 2597.48 3483.45 2588.32 3490.6C2578.68 3497.87 2567.16 3502.22 2555.13 3503.16C2543.34 3504.2 2531.48 3504.2 2519.7 3503.16C2496.48 3499.31 2472.72 3500.41 2449.96 3506.36C2426.99 3514.69 2407.39 3530.32 2394.17 3550.86C2380.15 3571.61 2371.74 3595.63 2369.76 3620.6C2369.72 3646.02 2371.35 3671.41 2374.64 3696.62C2375.85 3709.35 2375.52 3722.18 2373.66 3734.83C2371.85 3747.7 2366.7 3759.86 2358.74 3770.12C2350.74 3780.07 2340.25 3787.72 2328.33 3792.3C2316.89 3796.47 2305 3799.27 2292.9 3800.67C2270.18 3802.19 2247.67 3805.93 2225.67 3811.83C2215.39 3815.24 2205.9 3820.69 2197.78 3827.87C2190.2 3835 2183.92 3843.4 2179.23 3852.69C2170.31 3870.92 2164.82 3890.64 2163.05 3910.86C2159.28 3950.05 2161.79 3988.13 2151.47 4021.46C2147.17 4037.52 2138.92 4052.24 2127.48 4064.28C2122.29 4069.7 2116.08 4074.02 2109.21 4077.02C2102.34 4080.01 2094.94 4081.61 2087.45 4081.72C2080.84 4081.93 2074.29 4080.5 2068.37 4077.56C2062.46 4074.61 2057.36 4070.24 2053.56 4064.84C2050.46 4060.25 2048.47 4055 2047.72 4049.51C2046.97 4044.03 2047.49 4038.44 2049.23 4033.18C2050.78 4029.03 2053.39 4025.36 2056.78 4022.53C2060.18 4019.69 2064.26 4017.78 2068.62 4017C2074.91 4015.64 2081.48 4016.37 2087.31 4019.09C2089.96 4019.91 2092.38 4021.34 2094.39 4023.25C2096.4 4025.16 2097.94 4027.51 2098.89 4030.11Z" fill="#263238"/>
<path d="M3623.13 4202.94C3623.75 4204.12 3624.31 4205.33 3624.8 4206.56C3626.16 4210.17 3626.82 4214.01 3626.75 4217.86C3626.15 4225.37 3623.71 4232.62 3619.64 4238.97C3615.58 4245.32 3610.03 4250.57 3603.46 4254.27C3594.14 4260.19 3582.97 4262.47 3572.08 4260.68C3559.22 4258.02 3547.71 4250.91 3539.58 4240.6C3530.13 4228.98 3524.22 4214.89 3522.56 4200.01C3521.08 4183.36 3523.87 4166.61 3530.65 4151.33C3543.76 4118.69 3570.96 4091.35 3596.21 4060.95C3609.45 4045.45 3620.14 4027.93 3627.87 4009.06C3635.6 3988.91 3639.3 3967.45 3638.75 3945.88C3638.24 3923.2 3633.16 3900.85 3623.82 3880.18C3613.75 3858.97 3599.52 3840 3581.98 3824.39C3564.27 3807.79 3544.32 3792.59 3526.19 3773.9C3506.85 3755.31 3494.36 3730.74 3490.76 3704.16C3489.63 3678.01 3493.66 3651.89 3502.62 3627.3C3510.77 3603.95 3516.33 3579.76 3519.21 3555.19C3522.02 3532.21 3520.18 3508.9 3513.8 3486.64C3507.43 3464.38 3496.65 3443.63 3482.11 3425.62C3468.2 3409.17 3450.61 3396.23 3430.78 3387.82C3411.83 3380.49 3391.5 3377.4 3371.23 3378.75C3351.5 3380.39 3331.65 3377.93 3312.92 3371.5C3295.99 3363.58 3282.65 3349.59 3275.54 3332.3C3261.59 3300.22 3261.59 3268.28 3255.32 3242.48C3252.86 3230.28 3248.58 3218.53 3242.63 3207.61C3237.56 3198.56 3230.5 3190.79 3221.98 3184.87C3210.35 3176.19 3195.79 3172.39 3181.39 3174.27C3176.57 3175.47 3171.89 3177.2 3167.45 3179.43C3171.45 3176.09 3176.26 3173.83 3181.39 3172.88C3196.06 3170.47 3211.09 3173.93 3223.24 3182.5C3232.23 3188.58 3239.76 3196.58 3245.28 3205.93C3251.71 3217.01 3256.42 3229 3259.22 3241.5C3265.92 3267.86 3265.92 3299.66 3280.15 3330.21C3286.91 3346.19 3299.4 3359.07 3315.15 3366.34C3333.11 3372.28 3352.11 3374.47 3370.95 3372.75C3392.76 3370.85 3414.71 3374.26 3434.92 3382.69C3455.13 3391.11 3473 3404.31 3486.99 3421.15C3502.22 3439.83 3513.53 3461.39 3520.24 3484.54C3526.95 3507.69 3528.93 3531.96 3526.05 3555.89C3523.28 3580.89 3517.71 3605.5 3509.45 3629.26C3500.79 3653 3496.86 3678.21 3497.87 3703.46C3501.35 3728.3 3513.09 3751.25 3531.21 3768.6C3548.5 3786.59 3568.17 3801.93 3586.3 3818.81C3604.66 3835.16 3619.47 3855.1 3629.82 3877.39C3639.52 3898.9 3644.74 3922.15 3645.16 3945.74C3645.63 3968.13 3641.69 3990.41 3633.59 4011.29C3625.5 4030.75 3614.34 4048.79 3600.53 4064.71C3574.73 4095.4 3547.95 4122.04 3535.11 4153.28C3528.54 4167.74 3525.71 4183.61 3526.89 4199.45C3528.32 4213.48 3533.68 4226.83 3542.37 4237.95C3549.8 4247.71 3560.4 4254.57 3572.36 4257.33C3582.52 4259.17 3593 4257.18 3601.79 4251.76C3608.08 4248.37 3613.46 4243.53 3617.49 4237.63C3621.52 4231.73 3624.07 4224.95 3624.94 4217.86C3625.01 4212.83 3624.4 4207.81 3623.13 4202.94V4202.94Z" fill="#263238"/>
<path d="M2537.14 3510.83C2510.64 3518.22 2496.27 3548.21 2496.27 3575.69C2498.64 3603.05 2504.64 3629.98 2514.12 3655.75C2521.38 3682.25 2524.86 3711.54 2511.75 3735.95C2485.25 3784.21 2410.91 3781.7 2375.06 3823.55C2329.45 3876.69 2371.99 3964.56 2339.08 4026.35C2309.09 4082.14 2225.26 4100.27 2208.66 4161.92C2198.06 4201.12 2220.38 4243.8 2208.66 4282.85C2196.25 4327.21 2147.01 4349.66 2121.07 4387.74C2109 4407.62 2101.97 4430.14 2100.58 4453.36C2099.2 4476.57 2103.5 4499.77 2113.12 4520.95C2130.67 4558.56 2156.97 4591.42 2189.83 4616.77C2193.74 4620.12 2197.78 4623.32 2201.83 4626.53L2682.2 4514.95L2778.44 3626.46L2537.14 3510.83Z" fill="#263238"/>
<path d="M2800.62 3346.39C2783.24 3344.45 2765.77 3349.11 2751.67 3359.44C2737.56 3369.77 2727.85 3385.03 2724.47 3402.18L2566.44 4335.72C2544.68 4445.35 2690.99 4541.03 2808.43 4563.49C2927.13 4586.23 2943.31 4529.18 2967.16 4425.68C3007.05 4252.59 3020.86 4187.45 3020.72 4188.57C3020.58 4189.68 3175.27 4195.68 3247.66 4007.24C3283.78 3913.65 3312.65 3753.81 3332.18 3622.42C3349.75 3504 3302.89 3343.46 3183.91 3331.74L2800.62 3346.39Z" fill="#B78876"/>
<path d="M3261.74 3739.43C3260.43 3745.95 3256.61 3751.69 3251.1 3755.41C3245.6 3759.14 3238.85 3760.57 3232.31 3759.38C3229.09 3758.97 3225.97 3757.91 3223.16 3756.28C3220.35 3754.65 3217.9 3752.46 3215.94 3749.86C3213.99 3747.26 3212.58 3744.29 3211.8 3741.13C3211.02 3737.97 3210.88 3734.69 3211.39 3731.48C3212.74 3724.97 3216.56 3719.24 3222.05 3715.5C3227.54 3711.75 3234.27 3710.28 3240.82 3711.39C3244.06 3711.82 3247.17 3712.89 3249.98 3714.54C3252.8 3716.19 3255.25 3718.38 3257.2 3721C3259.15 3723.61 3260.56 3726.59 3261.34 3729.75C3262.12 3732.92 3262.26 3736.21 3261.74 3739.43Z" fill="#263238"/>
<path d="M3279.74 3714.19C3275.97 3716.84 3260.07 3698.84 3233.15 3693.12C3206.23 3687.41 3183.77 3696.75 3181.54 3693.12C3180.43 3691.31 3184.75 3686.15 3194.65 3681.69C3207.88 3676.16 3222.49 3674.84 3236.5 3677.92C3250.51 3680.85 3263.22 3688.18 3272.76 3698.84C3280.02 3706.65 3281.55 3713.07 3279.74 3714.19Z" fill="#263238"/>
<path d="M2994.08 3682.24C2992.76 3688.77 2988.95 3694.52 2983.45 3698.27C2977.95 3702.02 2971.21 3703.48 2964.65 3702.33C2961.44 3701.88 2958.35 3700.81 2955.55 3699.16C2952.76 3697.52 2950.32 3695.33 2948.37 3692.74C2946.43 3690.15 2945.02 3687.19 2944.22 3684.05C2943.42 3680.91 2943.25 3677.64 2943.73 3674.43C2945.08 3667.93 2948.9 3662.2 2954.39 3658.45C2959.88 3654.7 2966.61 3653.23 2973.16 3654.35C2976.38 3654.77 2979.48 3655.84 2982.28 3657.48C2985.08 3659.12 2987.53 3661.3 2989.48 3663.9C2991.43 3666.5 2992.84 3669.46 2993.63 3672.61C2994.42 3675.76 2994.57 3679.03 2994.08 3682.24V3682.24Z" fill="#263238"/>
<path d="M3014.59 3654.36C3010.82 3656.87 2994.92 3638.88 2968 3633.16C2941.08 3627.44 2918.49 3636.79 2916.39 3633.16C2915.28 3631.35 2919.6 3626.18 2929.51 3621.72C2942.76 3616.28 2957.34 3614.97 2971.35 3617.96C2985.34 3620.94 2998.03 3628.26 3007.61 3638.88C3014.87 3646.55 3016.4 3652.96 3014.59 3654.36Z" fill="#263238"/>
<path d="M3069.54 3866.64C3084.65 3865.17 3099.88 3865.64 3114.87 3868.03C3121.98 3868.73 3128.82 3868.87 3130.91 3864.4C3133.09 3857.46 3133.09 3850.01 3130.91 3843.06L3121.7 3786.44C3109.43 3706.1 3102.04 3640.54 3105.39 3640.12C3108.73 3639.7 3121.15 3704.42 3133.28 3784.9C3136.07 3804.57 3138.86 3823.54 3141.51 3841.53C3144.07 3850.8 3143.28 3860.68 3139.28 3869.43C3137.71 3871.7 3135.64 3873.58 3133.22 3874.92C3130.79 3876.25 3128.09 3877 3125.33 3877.1C3121.31 3877.36 3117.28 3877.08 3113.34 3876.26C3098.39 3874.88 3083.68 3871.64 3069.54 3866.64V3866.64Z" fill="#263238"/>
<path d="M3020.3 4188.43C2928.32 4170.2 2843.22 4126.73 2774.54 4062.89C2774.54 4062.89 2810.94 4214.37 3009.7 4237.66L3020.3 4188.43Z" fill="#AA6550"/>
<path d="M3044.42 3928.98C3040.76 3921.33 3035.2 3914.74 3028.26 3909.86C3021.32 3904.97 3013.25 3901.95 3004.81 3901.09C2998.78 3900.37 2992.68 3900.88 2986.85 3902.58C2981.03 3904.28 2975.61 3907.14 2970.92 3910.99C2966.27 3914.61 2962.89 3919.61 2961.26 3925.28C2959.63 3930.94 2959.84 3936.97 2961.85 3942.51C2965.12 3948.28 2970.04 3952.94 2975.98 3955.87C2981.93 3958.81 2988.62 3959.89 2995.19 3958.97C3008.86 3957.23 3022.04 3952.77 3033.96 3945.86C3037.42 3944.26 3040.58 3942.09 3043.31 3939.44C3044.62 3938.2 3045.52 3936.58 3045.89 3934.82C3046.27 3933.05 3046.09 3931.21 3045.4 3929.54" fill="#AA6550"/>
<path d="M2986.55 3868.34C2991.01 3869.03 2984.88 3898.19 3005.38 3924.13C3025.88 3950.07 3057.68 3953.56 3056.99 3957.6C3056.99 3959.56 3048.9 3961.79 3035.65 3959.42C3018.55 3955.98 3003.19 3946.65 2992.27 3933.06C2981.79 3919.96 2976.79 3903.31 2978.32 3886.61C2979.85 3874.34 2984.88 3867.78 2986.55 3868.34Z" fill="#263238"/>
<path d="M3036.76 3602.05C3032.43 3608.89 3006.35 3599.68 2974.13 3596.75C2941.91 3593.82 2914.43 3596.75 2911.64 3589.5C2910.39 3586.01 2916.39 3580.01 2928.1 3575.55C2943.68 3569.84 2960.34 3567.75 2976.84 3569.41C2993.34 3571.08 3009.25 3576.47 3023.37 3585.17C3033.97 3591.87 3038.57 3598.56 3036.76 3602.05Z" fill="#263238"/>
<path d="M3286.43 3665.81C3280.43 3670.97 3263.28 3660.65 3241.1 3655.63C3218.92 3650.61 3199.25 3650.89 3196.19 3643.63C3194.93 3640.15 3199.12 3634.71 3208.6 3630.66C3221.14 3626.11 3234.75 3625.37 3247.71 3628.55C3260.67 3631.73 3272.4 3638.68 3281.41 3648.51C3287.96 3656.46 3289.22 3663.3 3286.43 3665.81Z" fill="#263238"/>
<path d="M2941.91 3310.55C2923.14 3290.2 2900.21 3274.12 2874.67 3263.41C2849.14 3252.7 2821.6 3247.61 2793.92 3248.48C2738.83 3252.25 2685.69 3289.63 2672.57 3342.21C2664.07 3376.38 2670.9 3416 2649 3443.75C2627.1 3471.51 2589.72 3474.44 2559.87 3490.34C2536.68 3503.17 2518.45 3523.39 2508.09 3547.79C2497.73 3572.18 2495.83 3599.34 2502.69 3624.94C2515.52 3668.46 2554.02 3706.67 2548.3 3751.59C2542.86 3793.43 2500.46 3821.33 2483.16 3860.1C2464.05 3903.06 2478.98 3954.81 2508.13 3992.33C2537.28 4029.85 2578.84 4055.93 2619.71 4081.32C2651.37 4101.12 2685.55 4121.63 2722.93 4121.21C2745.02 4120.14 2766.29 4112.52 2784.05 4099.34C2801.81 4086.15 2815.24 4067.98 2822.66 4047.14C2829.35 4026.25 2831.46 4004.15 2828.84 3982.37C2826.22 3960.58 2818.92 3939.62 2807.45 3920.91C2788.34 3888.14 2758.35 3857.17 2760.17 3819.51C2763.1 3760.93 2840.51 3728.99 2848.6 3670.83C2852.92 3640.98 2837.3 3612.11 2825.31 3584.07C2813.31 3556.03 2804.66 3522.28 2821.26 3496.89C2842.74 3463.98 2892.12 3464.81 2926.29 3444.59C2940.53 3436.02 2952.1 3423.65 2959.69 3408.86C2967.28 3394.08 2970.59 3377.47 2969.25 3360.9C2967.41 3344.31 2961.09 3328.54 2950.97 3315.27C2940.84 3302 2927.3 3291.74 2911.78 3285.58" fill="#263238"/>
<path d="M2930.47 3262.15C2926.15 3281.69 2926.2 3301.95 2930.6 3321.47C2935.01 3341 2943.67 3359.31 2955.96 3375.11C2968.26 3390.91 2983.88 3403.8 3001.73 3412.87C3019.57 3421.93 3039.2 3426.95 3059.21 3427.57C3090.03 3428.55 3125.88 3420.46 3148.19 3441.52C3170.51 3462.58 3163.96 3504.98 3183.48 3531.06C3211.38 3568.17 3271.91 3551.99 3312.78 3574.3C3344.16 3591.6 3358.25 3628.14 3374.85 3660.08C3391.45 3692.02 3419.2 3724.8 3455.05 3722.15C3460.59 3691.61 3462.6 3660.54 3461.05 3629.54C3459.26 3598.41 3446.79 3568.86 3425.76 3545.85C3413.9 3533.71 3398.84 3524.79 3388.24 3511.54C3365.09 3483.64 3367.18 3441.8 3356.72 3407.21C3349.74 3384.53 3337.46 3363.85 3320.89 3346.87C3304.33 3329.89 3283.95 3317.1 3261.45 3309.57C3224.07 3297.3 3182.09 3300.36 3146.8 3282.93C3120.72 3269.96 3100.49 3246.8 3073.71 3235.51C3021.55 3213.47 2962.13 3241.64 2914.71 3272.05" fill="#263238"/>
<path d="M2218.43 4385.24C2213.22 4384.36 2208.15 4382.77 2203.37 4380.5C2189.63 4373.93 2177.81 4363.94 2169.06 4351.49C2154.69 4331.8 2148.04 4307.54 2150.37 4283.28C2153.71 4251.23 2168.58 4221.5 2192.21 4199.59C2205.18 4187.46 2220.11 4177.42 2235.59 4165.84C2251.53 4154.94 2263.67 4139.34 2270.32 4121.2C2273.89 4100.67 2273.89 4079.67 2270.32 4059.14C2268.94 4036.02 2273.76 4012.96 2284.27 3992.33C2295.28 3970.62 2311.65 3952.09 2331.83 3938.49C2352.94 3924.32 2377.68 3916.53 2403.1 3916.03C2428.49 3914.77 2454.01 3917.42 2479.26 3914.08C2491.71 3912.57 2503.72 3908.53 2514.55 3902.22C2525.32 3895.37 2534.05 3885.73 2539.79 3874.32C2549.93 3850.38 2557.23 3825.34 2561.55 3799.7C2564.44 3786.89 2568.89 3774.47 2574.8 3762.74C2580.97 3750.96 2589.81 3740.79 2600.61 3733.03C2622.33 3720.29 2646.37 3712 2671.32 3708.62C2694.3 3705.42 2716.32 3697.33 2735.9 3684.91C2744.8 3678.7 2751.88 3670.22 2756.41 3660.36C2760.62 3650.61 2762.48 3640 2761.85 3629.4C2759.49 3608.56 2754.43 3588.12 2746.78 3568.58C2739.67 3549.66 2736.5 3529.5 2737.44 3509.31C2738.21 3499.46 2741.21 3489.92 2746.22 3481.41C2751.27 3473.48 2758.1 3466.84 2766.17 3462.02C2781.23 3454.25 2797.68 3449.51 2814.57 3448.07C2829.21 3446.5 2843.75 3444.03 2858.09 3440.68C2880.79 3434.49 2900.84 3421.02 2915.14 3402.32C2924.29 3390.64 2931.06 3377.28 2935.08 3362.99C2937.73 3353.09 2938.01 3347.65 2938.43 3347.65C2938.41 3352.92 2937.75 3358.16 2936.48 3363.27C2933.07 3378.09 2926.56 3392.02 2917.37 3404.14C2902.98 3423.67 2882.52 3437.89 2859.2 3444.59C2844.74 3448.2 2830.07 3450.9 2815.27 3452.68C2799.03 3454.28 2783.26 3459.02 2768.82 3466.62C2761.34 3471.14 2755.08 3477.41 2750.58 3484.9C2746.09 3492.39 2743.49 3500.86 2743.02 3509.58C2742.34 3529.04 2745.57 3548.44 2752.5 3566.63C2760.5 3586.56 2765.76 3607.49 2768.12 3628.84C2768.92 3640.48 2766.96 3652.14 2762.4 3662.87C2757.5 3674.03 2749.7 3683.66 2739.81 3690.77C2719.48 3703.81 2696.61 3712.37 2672.72 3715.88C2648.7 3719.08 2625.56 3727.05 2604.65 3739.31C2585.33 3755.04 2572.47 3777.33 2568.53 3801.93C2564.15 3828.16 2556.66 3853.78 2546.21 3878.23C2539.82 3890.66 2530.18 3901.12 2518.31 3908.5C2506.61 3915.39 2493.59 3919.76 2480.1 3921.33C2453.6 3924.82 2427.93 3922.03 2403.24 3923.28C2379.61 3923.93 2356.59 3930.99 2336.66 3943.72C2316.74 3956.45 2300.65 3974.36 2290.13 3995.53C2279.88 4015.01 2275.07 4036.88 2276.18 4058.86C2279.88 4080.13 2279.88 4101.88 2276.18 4123.16C2268.97 4142.4 2255.95 4158.93 2238.94 4170.44C2223.73 4182.16 2208.39 4191.92 2195.7 4203.5C2172.55 4224.32 2157.69 4252.8 2153.85 4283.7C2151.31 4307.1 2157.3 4330.62 2170.73 4349.95C2179.07 4362.48 2190.44 4372.7 2203.79 4379.66C2213.13 4383.71 2218.57 4384.82 2218.43 4385.24Z" fill="#455A64"/>
<path d="M3375.41 4680.8C3379.73 4676.64 3383.78 4672.22 3387.54 4667.55C3397.57 4653.42 3403.15 4636.62 3403.58 4619.29C3404.52 4591.93 3398.11 4564.82 3385.03 4540.77C3371.09 4511.89 3349.33 4482.04 3334.82 4443.13C3320 4400.39 3320 4353.92 3334.82 4311.18C3342.86 4287.42 3355.36 4265.41 3371.64 4246.32C3388.52 4226.8 3409.02 4210.48 3425.34 4189.69C3441.66 4168.91 3453.24 4142.27 3445.15 4116.33C3437.06 4090.38 3413.63 4072.11 3392.98 4051.75C3381.92 4041.55 3372.51 4029.69 3365.09 4016.6C3357.93 4002.91 3353.62 3987.92 3352.4 3972.52C3350.48 3941.4 3355.68 3910.25 3367.6 3881.44C3378.9 3852.15 3393.82 3825.65 3406.23 3797.76C3419.33 3771.51 3427.78 3743.2 3431.2 3714.07C3433.11 3686.55 3428.68 3658.97 3418.26 3633.44C3407.84 3607.9 3391.7 3585.1 3371.09 3566.78C3350.26 3551.35 3328.41 3537.37 3305.67 3524.93C3294.54 3518.07 3285.03 3508.89 3277.77 3498.01C3271.6 3487.13 3267.62 3475.14 3266.06 3462.72C3264.68 3451.46 3261.03 3440.59 3255.32 3430.78C3249.37 3421.68 3241.21 3414.25 3231.61 3409.16C3212.66 3400.19 3192.65 3393.67 3172.05 3389.78C3152.69 3386.08 3133.93 3379.8 3116.26 3371.09C3100.89 3362.89 3086.79 3352.51 3074.41 3340.26C3054.33 3320.65 3038.85 3296.83 3029.08 3270.52C3022.87 3254.16 3019.25 3236.94 3018.34 3219.47C3017.88 3213.39 3017.88 3207.28 3018.34 3201.2C3018.54 3224.57 3022.93 3247.72 3031.31 3269.54C3041.39 3295 3056.91 3317.94 3076.78 3336.77C3088.94 3348.63 3102.81 3358.6 3117.93 3366.34C3135.1 3374.68 3153.3 3380.73 3172.05 3384.34C3193.19 3388.04 3213.73 3394.56 3233.14 3403.72C3243.66 3409.1 3252.6 3417.13 3259.08 3427.02C3265.21 3437.49 3269.23 3449.04 3270.94 3461.05C3272.36 3472.7 3276.1 3483.94 3281.96 3494.11C3288.65 3504.2 3297.46 3512.72 3307.76 3519.07C3330.82 3531.42 3352.96 3545.41 3374.01 3560.92C3395.6 3579.92 3412.49 3603.66 3423.38 3630.27C3434.27 3656.89 3438.86 3685.66 3436.78 3714.35C3433.45 3744.3 3424.86 3773.44 3411.4 3800.41C3398.84 3828.3 3383.5 3854.66 3373.04 3883.12C3361.55 3910.92 3356.45 3940.95 3358.11 3970.99C3359.23 3985.61 3363.31 3999.85 3370.11 4012.83C3377.18 4025.32 3386.17 4036.62 3396.75 4046.31C3407.07 4056.35 3418.09 4065.98 3427.85 4076.72C3438.19 4087.24 3446.02 4099.97 3450.73 4113.96C3454.65 4128.08 3454.21 4143.05 3449.47 4156.92C3445 4170.19 3438.2 4182.57 3429.39 4193.46C3412.51 4214.94 3391.73 4231.26 3375.41 4250.09C3359.53 4268.48 3347.31 4289.74 3339.42 4312.72C3325 4354.23 3325 4399.39 3339.42 4440.9C3353.37 4478.56 3374.85 4508.82 3388.52 4538.53C3401.54 4563.33 3407.62 4591.19 3406.09 4619.15C3405.38 4636.87 3399.19 4653.92 3388.38 4667.97C3384.83 4672.96 3380.44 4677.31 3375.41 4680.8V4680.8Z" fill="#455A64"/>
<path d="M3218.08 4515.09C3296.83 4597.65 3339.96 4707.86 3338.17 4821.94C3334.55 5012.75 3365.37 5358.8 3365.37 5358.8L3893.3 5681.56L3744.34 5909.75L3162.71 5651.71L3040.66 5401.9L3218.08 4515.09Z" fill="#FFCE46"/>
<path d="M3379.46 5822.58C3379.46 5822.58 3399.13 5784.78 3343.76 5755.91H3254.07L3079.02 5453.66L3218.5 4515.09L2979.71 4333.77L2451.22 4286.77L2266.41 5236.62L2502.55 5668.32L2970.93 5860.66L3379.46 5822.58Z" fill="#FFCE46"/>
<path d="M2544.53 4293.6L2555.13 4204.05C2555.52 4199.97 2556.81 4196.02 2558.9 4192.49C2560.99 4188.95 2563.84 4185.93 2567.24 4183.62C2570.63 4181.32 2574.5 4179.79 2578.55 4179.15C2582.61 4178.51 2586.75 4178.78 2590.69 4179.92C2721.67 4282.58 2855.71 4334.61 2998.53 4293.6C3007.83 4296.19 3015.76 4302.29 3020.63 4310.63C3025.5 4318.96 3026.93 4328.86 3024.62 4338.23L2968.82 4562.52L2824.18 4605.9L2633.24 4568.52L2543.97 4403.65L2544.53 4293.6Z" fill="#FFCE46"/>
<path d="M3002.31 4355.39C2996.97 4359.57 2991.11 4363.04 2984.88 4365.71C2968.83 4374.05 2952.07 4380.96 2934.8 4386.35C2877.52 4404.61 2816.4 4407.25 2757.75 4394.01C2699.11 4380.77 2645.05 4352.13 2601.17 4311.03C2587.94 4298.76 2575.81 4285.37 2564.9 4271C2560.67 4265.89 2557.02 4260.33 2554.02 4254.4C2569.9 4272.95 2586.8 4290.6 2604.65 4307.27C2648.64 4346.53 2701.91 4373.94 2759.43 4386.9C2816.96 4399.86 2876.83 4397.94 2933.41 4381.33C2956.86 4374.04 2979.87 4365.37 3002.31 4355.39V4355.39Z" fill="#263238"/>
<g opacity="0.2">
<path d="M2570.05 4271.84C2566.68 4280.48 2565.51 4289.82 2566.65 4299.03C2567.8 4308.23 2571.22 4317.01 2576.61 4324.56C2587.69 4339.36 2601.23 4352.14 2616.64 4362.36C2667.97 4400.58 2721.25 4438.37 2782.62 4455.95C2843.99 4473.52 2915.96 4466.83 2963.11 4423.73C2977.05 4411.32 2987.24 4387.88 2973.15 4376.03C2962.55 4367.1 2946.51 4372.54 2933.68 4377.56C2870.48 4401.73 2801 4403.99 2736.36 4383.99C2671.72 4363.99 2615.67 4322.87 2577.17 4267.23" fill="black"/>
</g>
<path d="M2496.69 5287.94L3361.46 5751.02L3049.86 5939.32L2454.84 5764.97C2139.76 5681.28 2053.7 5550.73 2056.77 5416.27C2058.02 5367.03 2052.16 4886.24 2073.36 4651.22C2102.24 4330.41 2451.08 4287.18 2451.08 4287.18L2445.22 4560.98L2449.12 4895.73L2460.98 5202.58C2492.5 5186.82 2500.31 5245.96 2500.31 5245.96L2496.69 5287.94Z" fill="#FFCE46"/>
<path d="M2454.84 5239.96C2452.89 5239.96 2450.1 5123.77 2448.84 4980.53C2447.59 4837.28 2448.14 4720.96 2450.1 4720.82C2452.05 4720.68 2454.84 4837 2456.09 4980.39C2457.35 5123.77 2457.07 5239.96 2454.84 5239.96Z" fill="#263238"/>
<path d="M2494.04 5303.71C2493.07 5303.71 2495.85 5297.99 2497.11 5289.76C2498.93 5278.45 2496.87 5266.84 2491.25 5256.85C2485.32 5247.04 2476.22 5239.56 2465.45 5235.65C2457.22 5232.44 2451.5 5232.3 2451.5 5231.04C2451.5 5229.79 2457.36 5228.53 2467.12 5231.04C2473.47 5232.54 2479.45 5235.32 2484.69 5239.2C2489.94 5243.08 2494.34 5247.99 2497.63 5253.63C2500.91 5259.26 2503.02 5265.51 2503.82 5271.99C2504.62 5278.46 2504.09 5285.03 2502.27 5291.3C2499.2 5300.23 2494.74 5304.27 2494.04 5303.71Z" fill="#263238"/>
<path d="M2494.04 5303.72C2494.04 5303.72 2494.04 5303.72 2495.58 5305.11L2500.6 5308.32C2505.2 5311.11 2512.04 5314.88 2520.96 5319.76C2538.68 5329.38 2564.62 5343.05 2596.7 5359.65L2847.76 5488.67L3099.67 5617.41L3175.68 5657.02L3196.19 5668.04C3198.69 5669.16 3201.04 5670.62 3203.16 5672.36C3200.54 5671.62 3198.02 5670.59 3195.63 5669.29L3174.43 5659.53L3097.29 5622.01C3032.99 5590.07 2943.03 5545.44 2845.39 5495.5C2747.76 5445.57 2658.35 5399.12 2594.33 5364.53C2530.31 5329.94 2491.81 5306.51 2494.04 5303.72Z" fill="#263238"/>
<path d="M3059.22 5462.99C3045.5 5461.05 3032 5457.78 3018.91 5453.23C2994.22 5446.11 2960.33 5435.65 2923.23 5423.1C2886.12 5410.55 2853.49 5397.99 2829.08 5388.51C2815.95 5384.04 2803.25 5378.39 2791.14 5371.63C2804.89 5374.59 2818.38 5378.7 2831.45 5383.91L2926.16 5416.26L3021 5448.48C3034.14 5452.19 3046.93 5457.04 3059.22 5462.99Z" fill="#263238"/>
<path d="M2846.24 5107.05C2846.24 5107.05 2845.26 5110.95 2842.05 5117.23C2837.6 5126.28 2832.28 5134.88 2826.15 5142.89C2817.23 5154.89 2807.14 5165.96 2796.02 5175.95C2782.17 5187.96 2767.12 5198.52 2751.11 5207.47C2734.91 5216.08 2717.85 5222.95 2700.2 5227.97C2685.75 5231.88 2670.93 5234.31 2655.99 5235.23C2645.97 5236.19 2635.88 5236.19 2625.86 5235.23C2618.88 5234.39 2614.98 5233.69 2615.12 5233.14C2615.26 5232.58 2630.74 5233.14 2655.57 5230.63C2670.06 5228.96 2684.38 5226.06 2698.39 5221.98C2715.4 5216.68 2731.88 5209.82 2747.62 5201.47C2763.24 5192.88 2777.96 5182.74 2791.56 5171.21C2802.65 5161.77 2812.88 5151.36 2822.11 5140.1C2837.87 5120.3 2845.4 5106.49 2846.24 5107.05Z" fill="#263238"/>
<path d="M2451.49 4641.89C2450.38 4641.89 2448.57 4622.51 2443.96 4591.26C2438.83 4550.68 2427.94 4511.04 2411.6 4473.54C2394.91 4436.26 2368.87 4403.93 2336 4379.67C2321.9 4370.32 2307.07 4362.11 2291.65 4355.12C2296.47 4355.38 2301.19 4356.51 2305.6 4358.47C2317.54 4362.7 2328.92 4368.37 2339.49 4375.35C2374.18 4399.13 2401.6 4432.06 2418.72 4470.47C2435.43 4508.63 2445.89 4549.22 2449.68 4590.7C2451.36 4606.47 2452.19 4619.3 2452.47 4628.09C2452.87 4632.71 2452.54 4637.37 2451.49 4641.89V4641.89Z" fill="#263238"/>
<path d="M3372.91 5357.55C3365.23 5363.04 3357.88 5368.95 3350.87 5375.27C3334.79 5391.6 3320.74 5409.82 3309.03 5429.52C3297.12 5448.94 3287.74 5469.8 3281.13 5491.59C3276.39 5508.33 3276.25 5519.49 3275 5519.49C3273.06 5509.86 3273.49 5499.9 3276.25 5490.48C3281.48 5467.64 3290.43 5445.82 3302.75 5425.9C3314.54 5405.64 3329.41 5387.33 3346.83 5371.64C3353.8 5364.29 3362.94 5359.35 3372.91 5357.55V5357.55Z" fill="#263238"/>
<g opacity="0.2">
<path d="M3244.16 5697.03C3272.89 5641.94 3265.78 5575.13 3249.6 5515.71C3233.42 5456.29 3208.87 5397.29 3204.13 5335.36C3200.08 5281.66 3211.38 5228.1 3222.12 5175.38C3232.86 5122.66 3243.32 5068.96 3237.74 5015.4C3232.16 4961.83 3208.17 4907.58 3163.26 4878.01C3183 4921.79 3197.06 4967.91 3205.11 5015.26C3212.88 5063.08 3202 5112.06 3174.7 5152.09C3159.77 5171.61 3139.69 5187.65 3129.93 5210.25C3117.09 5240.24 3119.05 5274.27 3109.56 5304.26C3099.1 5337.32 3080.13 5448.06 3080.13 5448.06C3078.88 5454.2 3112.91 5516.83 3146.52 5561.46C3180.14 5606.09 3221.01 5646.4 3245.42 5696.76" fill="black"/>
</g>
<path d="M3246.25 5693.26C3246.25 5693.26 3245 5692.01 3242.77 5689.22L3233.28 5676.53L3198.27 5627.99C3168.15 5585.31 3126.16 5525.89 3076.23 5455.45L3075.53 5454.33V5452.94L3121 5230.47C3122.81 5221.96 3124.49 5213.59 3126.16 5205.36V5204.39V5203.55C3176.55 5153.09 3205.15 5084.88 3205.81 5013.58C3203.89 4958.76 3184.32 4906.02 3150.01 4863.22V4863.22V4862.52C3147.78 4826.95 3145.97 4798.5 3144.71 4778.13C3144.71 4768.79 3143.88 4761.4 3143.6 4755.68C3143.32 4753.08 3143.32 4750.46 3143.6 4747.87C3144.36 4750.36 3144.78 4752.94 3144.85 4755.54C3144.85 4761.26 3146.11 4768.65 3147.08 4777.86C3148.9 4798.22 3151.41 4826.67 3154.48 4861.54V4860.29C3190.17 4903.68 3210.65 4957.57 3212.78 5013.72C3213.58 5048.4 3207.02 5082.87 3193.53 5114.84C3179.28 5149.96 3158.34 5181.98 3131.88 5209.13L3132.86 5207.31C3131.18 5215.4 3129.51 5223.91 3127.7 5232.42C3111.52 5312.06 3096.45 5387.66 3082.51 5453.64V5451.13L3202.32 5625.2C3216.27 5645.98 3227.7 5662.58 3235.79 5674.71L3244.44 5687.96C3245.56 5691.59 3246.53 5693.26 3246.25 5693.26Z" fill="#263238"/>
<g opacity="0.2">
<path d="M2619.3 5237.61C2610.79 5230.77 2597.26 5241.37 2597.82 5252.25C2598.73 5257.65 2600.94 5262.75 2604.24 5267.12C2607.54 5271.49 2611.84 5275 2616.78 5277.36C2643.16 5292.1 2673.52 5298.16 2703.54 5294.65C2741.1 5292.57 2776.84 5277.82 2804.94 5252.81C2818.75 5240.27 2829.15 5224.42 2835.15 5206.75C2841.15 5189.09 2842.56 5170.19 2839.26 5151.83C2838.78 5148.81 2837.53 5145.98 2835.63 5143.6C2828.52 5136.34 2816.8 5144.43 2809.83 5151.83C2761.37 5202.7 2695.31 5233.13 2625.15 5236.91" fill="black"/>
</g>
<g opacity="0.2">
<path d="M2450.94 5231.45C2434.8 5224.87 2416.97 5223.67 2400.09 5228.01C2383.21 5232.36 2368.18 5242.02 2357.21 5255.58C2353.25 5259.56 2350.59 5264.65 2349.57 5270.17C2348.55 5275.7 2349.22 5281.4 2351.49 5286.54C2354.25 5290.27 2358.07 5293.07 2362.46 5294.57C2366.85 5296.06 2371.59 5296.18 2376.04 5294.91C2384.95 5292.05 2393.14 5287.29 2400.03 5280.96C2416.07 5268.55 2431.84 5255.72 2447.04 5242.46C2449.43 5240.83 2451.31 5238.56 2452.48 5235.91C2453.03 5234.6 2453.08 5233.14 2452.62 5231.8C2452.16 5230.46 2451.21 5229.34 2449.97 5228.66" fill="black"/>
</g>
<path d="M2377.85 5304.41C2377.01 5304.41 2377.85 5297.3 2382.03 5286.98C2387.86 5273.61 2396.55 5261.68 2407.49 5252.04C2418.44 5242.4 2431.36 5235.28 2445.36 5231.19C2450.97 5228.92 2457.12 5228.29 2463.07 5229.37C2444.76 5235.89 2427.62 5245.31 2412.3 5257.27C2398.43 5271.09 2386.81 5287 2377.85 5304.41Z" fill="#263238"/>
<path d="M2121.08 4828.92C2118.73 4787.43 2118.73 4745.85 2121.08 4704.36C2121.24 4662.83 2123.76 4621.34 2128.61 4580.09C2131.12 4621.52 2131.12 4663.07 2128.61 4704.5C2128.52 4746.09 2126 4787.63 2121.08 4828.92V4828.92Z" fill="#FAFAFA"/>
<path d="M2183.14 5023.51C2181.18 5023.51 2179.37 4956.56 2179.23 4874.12C2179.09 4791.69 2180.77 4724.88 2182.72 4724.88C2184.67 4724.88 2186.48 4791.69 2186.62 4874.12C2186.76 4956.56 2185.09 5023.51 2183.14 5023.51Z" fill="#FAFAFA"/>
<path d="M2294.72 4530.29C2296.32 4541.51 2296.7 4552.88 2295.84 4564.18C2295.84 4585.1 2295 4613.98 2293.74 4645.78C2292.49 4677.58 2290.95 4706.45 2289.42 4727.37C2289.47 4738.69 2288.16 4749.98 2285.51 4760.99C2283.9 4749.81 2283.53 4738.49 2284.4 4727.23C2284.4 4706.31 2285.24 4677.44 2286.49 4645.5C2287.75 4613.56 2289.28 4584.68 2290.81 4563.9C2290.75 4552.58 2292.06 4541.29 2294.72 4530.29V4530.29Z" fill="#FAFAFA"/>
<path d="M2376.31 4930.73C2372.64 4898.79 2371.43 4866.62 2372.69 4834.49C2371.6 4802.41 2372.86 4770.29 2376.45 4738.39C2380.03 4770.29 2381.2 4802.41 2379.94 4834.49C2381.11 4866.62 2379.9 4898.79 2376.31 4930.73Z" fill="#FAFAFA"/>
<path d="M2284.67 5150.15C2282.63 5119.95 2282.96 5089.63 2285.65 5059.48C2286.01 5029.19 2288.71 4998.97 2293.74 4969.1C2295.66 5029.69 2292.63 5090.33 2284.67 5150.43V5150.15Z" fill="#FAFAFA"/>
<path d="M2097.92 5333.27C2092.06 5273.89 2091.03 5214.14 2094.85 5154.6C2100.71 5213.97 2101.73 5273.73 2097.92 5333.27V5333.27Z" fill="#FAFAFA"/>
<path d="M2182.58 5346.95C2180.19 5325.45 2180.19 5303.74 2182.58 5282.23C2182.6 5260.6 2184.98 5239.04 2189.7 5217.93C2192.09 5239.44 2192.09 5261.15 2189.7 5282.65C2189.75 5304.28 2187.36 5325.85 2182.58 5346.95Z" fill="#FAFAFA"/>
<path d="M2630.45 5448.77C2601.11 5438.52 2573.03 5424.95 2546.77 5408.32C2519.29 5393.79 2493.51 5376.25 2469.91 5356.02C2471.03 5354.21 2506.18 5376.52 2550.39 5402.05C2594.61 5427.57 2631.43 5446.96 2630.45 5448.77Z" fill="#FAFAFA"/>
<path d="M2915.13 5598.02C2905.08 5595.33 2895.42 5591.35 2886.39 5586.17C2841.45 5563.78 2799.32 5536.16 2760.86 5503.88C2752.47 5497.67 2744.96 5490.35 2738.54 5482.12C2739.94 5480.44 2776.2 5510.85 2824.88 5542.65C2873.56 5574.45 2916.52 5596.07 2915.13 5598.02Z" fill="#FAFAFA"/>
<path d="M2933.4 5679.76C2909.7 5672.76 2886.76 5663.41 2864.92 5651.87C2842.05 5642.62 2820.18 5631.08 2799.64 5617.42C2823.28 5624.44 2846.18 5633.78 2867.98 5645.31C2890.84 5654.68 2912.74 5666.22 2933.4 5679.76Z" fill="#FAFAFA"/>
<path d="M3126.31 5746.57C3125.19 5748.38 3093.39 5728.3 3051.97 5707.51C3010.54 5686.73 2975.67 5672.92 2976.37 5670.97C3031 5685.62 3082.04 5711.35 3126.31 5746.57V5746.57Z" fill="#FAFAFA"/>
<path d="M3078.47 5842.25C3061.01 5834.3 3044.22 5824.97 3028.25 5814.35C3011.1 5805.92 2994.59 5796.22 2978.88 5785.34C2997.7 5789.74 3015.6 5797.43 3031.74 5808.07C3049.13 5816.75 3064.93 5828.3 3078.47 5842.25V5842.25Z" fill="#FAFAFA"/>
<path d="M2405.74 5265.5C2401.44 5246.66 2399.47 5227.36 2399.88 5208.04C2397.96 5188.76 2398.38 5169.33 2401.14 5150.15C2405.61 5168.97 2407.63 5188.28 2407.14 5207.62C2409.14 5226.89 2408.68 5246.35 2405.74 5265.5V5265.5Z" fill="#FAFAFA"/>
<path d="M2831.44 4883.32C2824.49 4857.13 2819.82 4830.39 2817.49 4803.4C2812.78 4776.79 2810.54 4749.8 2810.8 4722.78C2817.84 4748.9 2822.5 4775.6 2824.75 4802.56C2829.46 4829.22 2831.7 4856.25 2831.44 4883.32Z" fill="#FAFAFA"/>
<path d="M2877.76 5120.7C2873.76 5092.62 2872.12 5064.25 2872.87 5035.9C2871.28 5007.61 2872.12 4979.24 2875.38 4951.09C2879.37 4979.18 2880.96 5007.55 2880.13 5035.9C2881.8 5064.18 2881 5092.56 2877.76 5120.7V5120.7Z" fill="#FAFAFA"/>
<path d="M2596.98 5154.6C2582.73 5103.11 2578.89 5049.29 2585.68 4996.29C2587.77 4996.29 2587.49 5031.86 2590.56 5075.52C2593.63 5119.18 2599.07 5154.18 2596.98 5154.6Z" fill="#FAFAFA"/>
<path d="M2693.08 5387.81C2684.9 5363.87 2680.21 5338.88 2679.13 5313.6C2675.86 5288.58 2676.14 5263.23 2679.97 5238.29C2683.37 5263.08 2685.51 5288.03 2686.39 5313.05C2690.15 5354.19 2695.17 5387.39 2693.08 5387.81Z" fill="#FAFAFA"/>
<path d="M2734.64 5052.8C2729.81 4998.65 2729.81 4944.17 2734.64 4890.02C2739.48 4944.17 2739.48 4998.65 2734.64 5052.8V5052.8Z" fill="#FAFAFA"/>
<path d="M2619.15 4772.28C2624.17 4812.85 2624.17 4853.89 2619.15 4894.46C2614.31 4853.88 2614.31 4812.86 2619.15 4772.28V4772.28Z" fill="#FAFAFA"/>
<path d="M2737.15 4566.55C2742.73 4602.46 2743.48 4638.95 2739.38 4675.06C2735.5 4657.25 2733.91 4639.02 2734.64 4620.8C2733.13 4602.69 2733.98 4584.45 2737.15 4566.55V4566.55Z" fill="#FAFAFA"/>
<path d="M2953.49 4792.8C2947.43 4754.66 2943.8 4716.18 2942.61 4677.59C2938.99 4639.21 2937.73 4600.64 2938.84 4562.1C2945 4600.18 2948.68 4638.62 2949.86 4677.17C2953.39 4715.61 2954.6 4754.22 2953.49 4792.8Z" fill="#FAFAFA"/>
<path d="M3024.06 5199.81C3020.47 5156.95 3019.26 5113.92 3020.44 5070.93C3019.26 5027.94 3020.47 4984.91 3024.06 4942.05C3027.74 4984.91 3028.95 5027.94 3027.69 5070.93C3028.95 5113.92 3027.74 5156.95 3024.06 5199.81Z" fill="#FAFAFA"/>
<path d="M2897.42 5407.9C2892.56 5347.55 2892.56 5286.92 2897.42 5226.57C2902.28 5286.92 2902.28 5347.55 2897.42 5407.9V5407.9Z" fill="#FAFAFA"/>
<path d="M3012.76 5530.08C3009.22 5518.77 3007.99 5506.87 3009.14 5495.07C3008 5483.23 3009.23 5471.28 3012.76 5459.92C3016.38 5471.26 3017.61 5483.23 3016.39 5495.07C3017.62 5506.87 3016.38 5518.79 3012.76 5530.08Z" fill="#FAFAFA"/>
<path d="M3089.76 4675.08C3094.59 4730.02 3094.59 4785.28 3089.76 4840.22C3084.92 4785.28 3084.92 4730.02 3089.76 4675.08V4675.08Z" fill="#FAFAFA"/>
<path d="M3010.53 4387.76C3014.12 4424.23 3015.33 4460.9 3014.16 4497.53C3015.33 4534.16 3014.12 4570.82 3010.53 4607.3C3006.95 4570.82 3005.74 4534.16 3006.91 4497.53C3005.74 4460.9 3006.95 4424.23 3010.53 4387.76V4387.76Z" fill="#FAFAFA"/>
<path d="M2861.29 4417.18C2866.13 4466.85 2866.13 4516.88 2861.29 4566.56C2856.46 4516.88 2856.46 4466.85 2861.29 4417.18V4417.18Z" fill="#FAFAFA"/>
<path d="M3203.71 4758.2C3194.06 4698.21 3192.98 4637.16 3200.51 4576.87C3202.6 4576.87 3201.9 4617.74 3202.88 4667.81C3203.85 4717.89 3205.81 4757.92 3203.71 4758.2Z" fill="#FAFAFA"/>
<path d="M3269.27 4910.8C3264.43 4849.38 3264.43 4787.68 3269.27 4726.27C3274.1 4787.68 3274.1 4849.38 3269.27 4910.8V4910.8Z" fill="#FAFAFA"/>
<path d="M3309.57 5178.88C3304.74 5115.56 3304.74 5051.96 3309.57 4988.63C3314.41 5051.96 3314.41 5115.56 3309.57 5178.88V5178.88Z" fill="#FAFAFA"/>
<path d="M3217.39 5325.89C3212.55 5258.7 3212.55 5191.25 3217.39 5124.06C3222.22 5191.25 3222.22 5258.7 3217.39 5325.89V5325.89Z" fill="#FAFAFA"/>
<path d="M3145.27 5495.49C3140.44 5424.44 3140.44 5353.14 3145.27 5282.09C3148.94 5317.53 3150.16 5353.18 3148.9 5388.79C3150.16 5424.4 3148.94 5460.05 3145.27 5495.49V5495.49Z" fill="#FAFAFA"/>
<path d="M3303.87 5406.66C3299.03 5365.47 3299.03 5323.86 3303.87 5282.66C3308.7 5323.86 3308.7 5365.47 3303.87 5406.66V5406.66Z" fill="#FAFAFA"/>
<path d="M3459.11 5708.34C3422.81 5697.07 3387.26 5683.51 3352.68 5667.75C3317.19 5654.25 3282.62 5638.46 3249.19 5620.46C3285.44 5631.75 3320.93 5645.3 3355.47 5661.05C3391 5674.56 3425.62 5690.36 3459.11 5708.34V5708.34Z" fill="#FAFAFA"/>
<path d="M3643.78 5652.56C3605.12 5642.69 3567.11 5630.44 3529.96 5615.87C3491.92 5603.65 3454.65 5589.11 3418.38 5572.36C3457.02 5582.3 3495.02 5594.55 3532.19 5609.04C3570.21 5621.34 3607.47 5635.87 3643.78 5652.56V5652.56Z" fill="#FAFAFA"/>
<path d="M3513.64 5529.12C3487.25 5519.71 3461.73 5508.04 3437.34 5494.25C3411.85 5482.47 3387.44 5468.47 3364.39 5452.4C3390.78 5461.82 3416.31 5473.48 3440.69 5487.27C3466.2 5499.03 3490.61 5513.03 3513.64 5529.12V5529.12Z" fill="#FAFAFA"/>
<path d="M2285.52 4386.91C2287.05 4388.58 2264.87 4408.67 2242.97 4437.96C2221.08 4467.25 2207.55 4493.75 2205.59 4492.78C2211.95 4471.04 2222.73 4450.86 2237.26 4433.5C2249.91 4414.76 2266.35 4398.89 2285.52 4386.91V4386.91Z" fill="#FAFAFA"/>
<path d="M2476.47 4439.92C2469.94 4426.23 2465.66 4411.58 2463.77 4396.54C2459.41 4382.04 2457.52 4366.9 2458.19 4351.77C2464.63 4365.44 2468.91 4380.02 2470.89 4395C2475.09 4409.59 2476.98 4424.75 2476.47 4439.92V4439.92Z" fill="#FAFAFA"/>
<path d="M3274.85 5880.88L4197.51 5432.87C4243.8 5410.32 4295.02 5399.78 4346.45 5402.22C4397.88 5404.65 4447.87 5419.99 4491.82 5446.82C4529.71 5469.97 4562.12 5501.07 4586.82 5537.98C4611.52 5574.88 4627.92 5616.7 4634.88 5660.55C4641.84 5704.41 4639.2 5749.25 4627.15 5791.99C4615.09 5834.72 4593.9 5874.33 4565.04 5908.08L4165.29 6375.9L3144.72 6517.05L3049.17 5939.05L3162.71 5763.3L3274.85 5880.88Z" fill="#263238"/>
<path d="M3832.21 6072.25C3828.87 6075.85 3825.08 6078.99 3820.91 6081.6C3813.38 6087.18 3802.22 6095.55 3788.42 6104.61C3760.52 6123.58 3721.88 6148.83 3677.95 6175.33C3634.01 6201.83 3593.56 6224.29 3563.85 6239.91C3548.93 6247.72 3536.79 6253.85 3528.29 6257.9C3523.9 6260.37 3519.21 6262.25 3514.34 6263.48C3517.99 6260.23 3522.07 6257.51 3526.47 6255.39L3560.78 6235.3C3589.8 6218.57 3629.83 6195.41 3673.62 6169.05C3717.42 6142.69 3756.61 6118.14 3785.21 6100.29L3818.96 6079.23C3823.05 6076.32 3827.5 6073.97 3832.21 6072.25V6072.25Z" fill="#455A64"/>
<path d="M1882.98 6106.71C1882.98 6106.71 1974.62 5664.28 2022.46 5596.21C2070.3 5528.14 2169.05 5375.69 2294.72 5360.07C2420.4 5344.45 2677.18 5495.09 2723.9 5554.23C2842.18 5704.17 3588.68 6494.32 3579.47 6484L3338.87 6649.84L3084.6 6569.5H2355.12C2355.12 6569.5 1849.78 6484 1882.98 6106.71Z" fill="#263238"/>
<path d="M3084.61 6569.5C3080.87 6569.61 3077.14 6569.38 3073.45 6568.8C3062.79 6567.89 3052.21 6566.21 3041.79 6563.78C3003.37 6554.48 2965.99 6541.35 2930.2 6524.59C2813.15 6468.88 2703.01 6399.69 2602.01 6318.44C2498.22 6240.91 2399.97 6156.22 2307.98 6065C2280.22 6037.22 2254.71 6007.27 2231.69 5975.45C2225.38 5966.77 2219.65 5957.68 2214.53 5948.26C2212.51 5945.17 2210.78 5941.9 2209.37 5938.49C2211.86 5941.25 2214.01 5944.29 2215.79 5947.56C2220.11 5953.56 2225.13 5963.04 2233.92 5973.78C2257.73 6004.81 2283.69 6034.12 2311.61 6061.51C2404.46 6151.38 2502.95 6235.24 2606.47 6312.58C2707.27 6393.35 2816.74 6462.68 2932.85 6519.29C2968.01 6536.51 3004.66 6550.52 3042.34 6561.13C3056.29 6564.2 3066.33 6566.57 3073.59 6567.41C3077.32 6567.76 3081.01 6568.46 3084.61 6569.5V6569.5Z" fill="#455A64"/>
<path d="M2757.65 6470.59C2754.63 6472.72 2751.46 6474.63 2748.17 6476.31L2720.27 6491.65C2708.14 6498.21 2692.38 6504.34 2674.52 6512.43C2665.6 6516.62 2655.41 6519.27 2644.95 6523.17C2633.98 6527.31 2622.81 6530.9 2611.48 6533.91C2555.97 6549.83 2498.62 6558.41 2440.89 6559.44C2369.86 6560.94 2299.01 6551.77 2230.7 6532.24C2162.36 6512.67 2097.71 6481.99 2039.33 6441.44C2026.22 6431.54 2012.97 6422.75 2001.11 6412.71C1989.62 6402.89 1978.98 6392.11 1969.31 6380.49C1951.95 6359.72 1936.89 6337.13 1924.4 6313.12C1905.71 6278.71 1892.88 6241.42 1886.46 6202.79C1884.68 6192.33 1883.75 6181.74 1883.67 6171.13C1883.37 6167.46 1883.37 6163.77 1883.67 6160.11C1884.51 6160.11 1883.67 6175.31 1888.97 6201.95C1896.34 6239.95 1909.71 6276.53 1928.58 6310.33C1941.28 6333.74 1956.33 6355.8 1973.5 6376.16C1983.11 6387.4 1993.6 6397.85 2004.88 6407.41C2016.59 6417.17 2029.85 6425.82 2042.82 6435.3C2100.85 6475.04 2164.9 6505.18 2232.51 6524.57C2300.08 6544.06 2370.16 6553.46 2440.47 6552.46C2497.88 6551.78 2554.96 6543.81 2610.36 6528.75C2622.36 6526.24 2633.24 6521.78 2643.84 6518.57C2654.44 6515.36 2664.34 6512.29 2673.27 6508.39C2691.12 6500.72 2707.02 6494.44 2719.3 6488.86L2747.19 6474.91C2750.51 6473.09 2754.01 6471.64 2757.65 6470.59V6470.59Z" fill="#455A64"/>
<path d="M3557.71 6457.92C3556.32 6459.31 3375.27 6268.64 3153.22 6032.09C2931.17 5795.53 2752.63 5602.63 2754.03 5601.37C2755.42 5600.12 2936.61 5790.51 3158.52 6027.2C3380.43 6263.9 3559.25 6456.66 3557.71 6457.92Z" fill="#455A64"/>
<path d="M2804.8 6454.56C2804.8 6454.56 2639.8 6521.79 2657.09 6598.65C2674.39 6675.5 2759.33 6711.21 2845.39 6702.98C2931.45 6694.75 3089.76 6623.89 3089.76 6623.89L3171.22 6580.65C3171.22 6580.65 3072.19 6579.12 3022.11 6561.27C2964.09 6540.48 2804.8 6454.56 2804.8 6454.56Z" fill="#FFCE46"/>
<path d="M3008.86 6589.43L3594.67 6681.49L4831.3 6558.19L4153.29 6372.4L3009.55 6536.85C3003.24 6537.76 2997.47 6540.9 2993.3 6545.72C2989.12 6550.54 2986.82 6556.7 2986.82 6563.07V6563.07C2986.79 6569.36 2988.99 6575.46 2993.02 6580.28C2997.05 6585.1 3002.66 6588.35 3008.86 6589.43V6589.43Z" fill="#455A64"/>
<path d="M3752.01 5749.92L3610.3 6587.78C3608.54 6598.74 3609.32 6609.97 3612.58 6620.58C3615.84 6631.2 3621.49 6640.93 3629.11 6649.02C3636.72 6657.1 3646.09 6663.33 3656.49 6667.22C3666.9 6671.12 3678.05 6672.57 3689.11 6671.46L4831.03 6557.65C4846.69 6556.09 4861.42 6549.48 4873 6538.81C4884.57 6528.14 4892.36 6513.99 4895.19 6498.51L5049.18 5651.03C5051.19 5639.93 5050.59 5628.51 5047.42 5617.69C5044.25 5606.86 5038.61 5596.92 5030.94 5588.65C5023.26 5580.38 5013.77 5574.01 5003.21 5570.05C4992.65 5566.08 4981.31 5564.63 4970.09 5565.81L3815.48 5689.94C3799.83 5691.71 3785.18 5698.52 3773.73 5709.34C3762.29 5720.15 3754.66 5734.4 3752.01 5749.92V5749.92Z" fill="#455A64"/>
<path d="M2986.41 6563.09H2989.48L2998.55 6564.07L3033.28 6568.95L3162.16 6588.2L3598.59 6656.12L3594.54 6659.05C3601.8 6615.39 3609.19 6569.92 3616.86 6523.48C3651.31 6317.33 3682.42 6130.84 3705.15 5995.13C3716.73 5928.04 3726.07 5873.5 3733.05 5835.28C3736.26 5816.73 3738.91 5802.23 3740.86 5791.76C3741.7 5787.16 3742.53 5783.54 3743.09 5780.61C3743.26 5779.27 3743.59 5777.96 3744.07 5776.7C3744.22 5778 3744.22 5779.31 3744.07 5780.61C3744.07 5783.68 3743.23 5787.44 3742.53 5792.04C3741 5802.51 3738.77 5817.15 3736.12 5835.7C3729.98 5874.06 3721.33 5928.73 3710.73 5995.96C3688.69 6131.82 3658.29 6318.44 3624.67 6524.59C3616.86 6571.04 3609.47 6616.51 3602.22 6660.31V6663.79H3598.59L3162.02 6594.05L3033.42 6572.71L2998.83 6566.72L2989.9 6564.9L2986.41 6563.09Z" fill="#263238"/>
<path d="M4465.32 6112.84C4465.32 6158.31 4432.4 6195.13 4391.81 6195.13C4351.22 6195.13 4318.44 6158.31 4318.44 6112.84C4318.44 6067.37 4351.36 6030.54 4391.81 6030.54C4432.26 6030.54 4465.32 6067.37 4465.32 6112.84Z" fill="#FAFAFA"/>
<path d="M2744.55 3831.49C2774.12 3875.15 2803.97 3919.51 2820.42 3969.58C2836.88 4019.65 2838.7 4076.98 2813.03 4123.01C2791.69 4161.22 2752.5 4191.21 2745.8 4234.59C2734.64 4308.38 2823.21 4363.05 2829.49 4437.4C2833.12 4479.24 2808.99 4519.41 2781.51 4551.91C2754.03 4584.41 2721.95 4613.98 2704.1 4652.61C2686.24 4691.25 2687.22 4742.3 2719.86 4770.19C2679.13 4758.76 2636.87 4802 2596.7 4788.61C2562.53 4777.31 2553.46 4734.07 2550.11 4698.22C2541.74 4708.89 2536 4721.39 2533.36 4734.69C2530.72 4748 2531.25 4761.74 2534.91 4774.8C2504.45 4742.66 2484.74 4701.86 2478.49 4658.03C2472.24 4614.2 2479.77 4569.51 2500.04 4530.15C2524.59 4484.54 2566.43 4444.37 2566.43 4393.6C2565.73 4337.81 2513.43 4295.96 2498.78 4241.15C2488.6 4204.05 2496.97 4164.57 2508.13 4127.75C2519.29 4090.93 2533.51 4054.24 2535.05 4016.17C2536.58 3978.09 2533.1 3962.33 2500.18 3942.52" fill="#263238"/>
<path d="M2642.03 4761.68H2638.96C2635.98 4761.11 2633.08 4760.17 2630.32 4758.89C2619.39 4754.1 2610.16 4746.13 2603.82 4736.02C2593.53 4720.15 2588.42 4701.49 2589.17 4682.6C2591.15 4657.71 2599.98 4633.86 2614.7 4613.7C2629.62 4590.82 2650.54 4569.2 2669.79 4543.96C2689.04 4518.71 2707.73 4489 2707.73 4453.85C2707.73 4418.7 2688.62 4384.81 2667 4353.01C2645.38 4321.21 2620.14 4287.31 2612.46 4244.91C2608.69 4223.89 2611.82 4202.21 2621.39 4183.12C2631.05 4165.35 2643.32 4149.13 2657.79 4135C2671.36 4121.91 2684.03 4107.93 2695.73 4093.16C2706.82 4079.12 2714.33 4062.61 2717.63 4045.04C2719.92 4028.3 2716.05 4011.3 2706.75 3997.19C2697.63 3983.67 2687.52 3970.85 2676.49 3958.84C2656.27 3936.29 2643.13 3908.31 2638.69 3878.36C2635.07 3853.75 2637.86 3828.63 2646.78 3805.41C2653.56 3788 2663.54 3772.01 2676.21 3758.27C2684.15 3749.64 2693.15 3742.05 2702.99 3735.67C2705.51 3734 2708.12 3732.47 2710.8 3731.07C2712.56 3730.14 2713.54 3729.72 2713.73 3729.81C2700.67 3738.4 2688.76 3748.61 2678.3 3760.22C2666.22 3773.91 2656.77 3789.7 2650.4 3806.8C2642.16 3829.46 2639.81 3853.84 2643.57 3877.66C2648.1 3906.52 2661.06 3933.4 2680.81 3954.93C2692.11 3967.13 2702.5 3980.14 2711.91 3993.85C2722.04 4009.18 2726.29 4027.65 2723.91 4045.87C2720.57 4064.59 2712.72 4082.21 2701.03 4097.2C2689.3 4112.47 2676.48 4126.88 2662.68 4140.3C2648.76 4153.99 2636.92 4169.64 2627.53 4186.75C2618.65 4204.46 2615.81 4224.59 2619.44 4244.07C2626.55 4284.1 2650.96 4317.44 2672.72 4349.52C2683.75 4365.41 2693.41 4382.21 2701.59 4399.73C2709.56 4416.83 2713.84 4435.41 2714.14 4454.27C2713.76 4472.26 2709.38 4489.93 2701.31 4506.02C2693.8 4520.86 2684.78 4534.88 2674.39 4547.86C2654.45 4572.97 2633.66 4594.17 2618.6 4616.49C2604.17 4635.77 2595.29 4658.63 2592.94 4682.6C2591.97 4700.76 2596.49 4718.79 2605.91 4734.35C2611.83 4744.21 2620.38 4752.22 2630.6 4757.5C2637.85 4760.57 2642.17 4761.13 2642.03 4761.68Z" fill="#455A64"/>
<path d="M3620.62 6034.59C3580.45 5998.46 3625.65 5956.2 3552.84 5887.44C3498.44 5836.25 3395.36 5747.96 3195.77 5681.57L3070.24 5904.73L3287.83 5974.47L3285.73 6116.33C3285.62 6123.27 3286.9 6130.16 3289.5 6136.6C3292.1 6143.04 3295.97 6148.89 3300.87 6153.81C3305.78 6158.72 3311.62 6162.61 3318.05 6165.23C3324.48 6167.84 3331.37 6169.14 3338.32 6169.05L3451.3 6167.65C3451.3 6167.65 3418.24 6307.13 3423.4 6315.5C3426.38 6320.22 3430.62 6324.01 3435.65 6326.44C3440.67 6328.87 3446.27 6329.84 3451.82 6329.24C3457.37 6328.65 3462.64 6326.51 3467.03 6323.07C3471.43 6319.63 3474.77 6315.03 3476.68 6309.78C3481.14 6291.09 3574.32 6065.97 3574.32 6065.97C3574.32 6065.97 3635.13 6118.42 3644.06 6088.43C3644.34 6089.13 3660.93 6070.86 3620.62 6034.59Z" fill="#B78876"/>
<path d="M3316.83 6173.09C3316.83 6172.39 3321.99 6168.9 3329.52 6161.51C3339.13 6151.85 3346.47 6140.18 3351 6127.34C3355.45 6114.44 3356.93 6100.71 3355.33 6087.17C3354.07 6076.85 3351.7 6070.57 3352.54 6070.15C3356.18 6074.95 3358.48 6080.63 3359.23 6086.61C3362.03 6100.81 3360.97 6115.5 3356.16 6129.15C3351.49 6143.02 3343.21 6155.39 3332.17 6165C3327.84 6168.96 3322.55 6171.75 3316.83 6173.09V6173.09Z" fill="#AA6550"/>
<path d="M3389.36 6168.48C3398.82 6155.13 3406.16 6140.41 3411.12 6124.82C3414.31 6108.8 3414.96 6092.37 3413.07 6076.14C3415.82 6080.32 3417.5 6085.11 3417.96 6090.09C3419.98 6102.06 3419.46 6114.31 3416.43 6126.06C3413.4 6137.81 3407.93 6148.8 3400.38 6158.3C3394.52 6165.69 3389.36 6168.9 3389.36 6168.48Z" fill="#AA6550"/>
<path d="M3476.95 6086.74C3477.65 6086.74 3479.05 6091.21 3479.19 6099.02C3479.26 6109.14 3477.22 6119.16 3473.19 6128.45C3469.26 6137.75 3463.47 6146.16 3456.17 6153.14C3450.45 6158.44 3446.13 6160.53 3445.71 6159.97C3454.48 6149.68 3462.02 6138.4 3468.17 6126.36C3472.69 6113.56 3475.64 6100.26 3476.95 6086.74V6086.74Z" fill="#AA6550"/>
<path d="M6438.53 5434.43C6451.08 5390.91 6477.86 5348.93 6519.42 5330.94C6560.99 5312.94 6612.74 5322.99 6656.95 5339.03C6701.17 5355.07 6744.68 5376.55 6791.55 5379.47C6838.41 5382.4 6891.56 5360.09 6905.64 5315.17C6918.89 5273.33 6893.37 5228 6861.57 5197.31C6827.84 5165.06 6786.55 5141.78 6741.49 5129.62C6696.43 5117.45 6649.04 5116.78 6603.66 5127.68C6558.28 5138.57 6516.35 5160.68 6481.73 5191.98C6447.1 5223.27 6420.88 5262.75 6405.47 5306.81" fill="#FFCE46"/>
<g opacity="0.5">
<path d="M6438.53 5434.43C6451.08 5390.92 6477.86 5348.93 6519.42 5330.94C6560.99 5312.95 6612.74 5322.99 6656.95 5339.03C6701.17 5355.07 6744.68 5376.55 6791.55 5379.48C6838.41 5382.41 6891.56 5360.09 6905.64 5315.18C6918.89 5273.33 6893.37 5228 6861.57 5197.32C6827.84 5165.06 6786.55 5141.79 6741.49 5129.62C6696.43 5117.45 6649.04 5116.79 6603.66 5127.68C6558.28 5138.58 6516.35 5160.68 6481.73 5191.98C6447.1 5223.27 6420.88 5262.76 6405.47 5306.81" fill="black"/>
</g>
<path d="M6066.39 5623.01C5997.49 5557.6 6000.84 5443.64 6035.29 5355.07C6069.74 5266.5 6144.64 5198.3 6228.47 5153.52C6310.27 5110.56 6400.75 5086.68 6493.1 5083.68C6585.45 5080.69 6677.28 5098.65 6761.7 5136.23C6720.38 5137.99 6680.12 5149.87 6644.44 5170.8C6608.77 5191.74 6578.78 5221.1 6557.08 5256.32C6519.28 5319.09 6510.92 5395.8 6479.67 5461.49C6444.49 5536.15 6382.06 5594.5 6305.19 5624.54C6228.32 5654.58 6142.87 5654.03 6066.39 5623.01" fill="#FFCE46"/>
<path d="M6033.2 5229.67C5956.9 5139.7 5946.72 4995.06 5958.02 4877.62C5969.32 4760.18 5996.51 4641.9 5977.96 4525.3C5966.94 4456.25 5940.16 4390.28 5931.1 4320.96C5922.03 4251.64 5934.86 4173.11 5988.56 4128.47C6050.35 4077.01 6147.57 4089.14 6211.73 4137.4C6275.89 4185.66 6313.13 4261.54 6340.33 4337.28C6400.17 4503.4 6422.07 4687.65 6372.97 4857.26C6323.87 5026.87 6208.66 5178.06 6039.75 5229.67" fill="#FFCE46"/>
<path d="M5996.66 5968.64C5996.26 5965.21 5996.26 5961.74 5996.66 5958.31C5996.66 5951.48 5996.66 5941.44 5996.66 5928.6C5997.63 5902.66 6000 5865.42 6005.86 5819.53C6012.7 5765.76 6022.48 5712.39 6035.15 5659.69C6051 5595.02 6075.54 5532.81 6108.1 5474.74C6140.76 5416.76 6180.8 5363.26 6227.22 5315.59C6264.99 5276.58 6306.84 5241.74 6352.05 5211.68C6371.16 5198.57 6389.57 5188.52 6405.47 5179.32C6421.37 5170.11 6435.88 5163.7 6447.32 5158.12L6475.21 5146.54C6478.38 5145.12 6481.65 5143.91 6484.98 5142.91C6482.03 5144.73 6478.95 5146.31 6475.77 5147.66L6448.85 5160.35C6437.41 5166.21 6423.47 5173.6 6407.01 5182.39C6390.55 5191.17 6373.25 5202.05 6354.42 5215.44C6255.05 5283.34 6172.59 5373.15 6113.4 5477.94C6043.66 5600.55 6024.13 5729.01 6010.19 5820.09C6003.77 5865.7 6000.7 5902.94 5998.89 5928.74L5997.21 5958.31C5997.27 5961.76 5997.08 5965.21 5996.66 5968.64V5968.64Z" fill="#263238"/>
<path d="M5338.45 4874.42C5197.3 4959.64 5197.71 5037.19 5221.29 5110.28C5244.86 5183.36 5331.61 5234.27 5403.45 5206.94C5444.04 5191.45 5473.19 5156.17 5498.57 5120.74C5523.96 5085.31 5547.25 5047.23 5582.26 5021.85C5617.27 4996.46 5668.6 4986.56 5703.89 5011.8" fill="#FFCE46"/>
<g opacity="0.5">
<path d="M5338.45 4874.42C5197.3 4959.64 5197.71 5037.19 5221.29 5110.28C5244.86 5183.37 5331.61 5234.28 5403.45 5206.94C5444.04 5191.46 5473.19 5156.17 5498.57 5120.74C5523.96 5085.31 5547.25 5047.23 5582.26 5021.85C5617.27 4996.46 5668.6 4986.56 5703.89 5011.81" fill="black"/>
</g>
<path d="M5232.87 4967.86C5269.69 4916.81 5360.91 4902.03 5418.52 4927.55C5476.12 4953.08 5518.25 5003.43 5556.05 5053.78C5593.85 5104.13 5630.53 5157.41 5682.83 5192.42C5735.14 5227.43 5808.37 5240.13 5860.25 5204.84C5876.87 5192.46 5890.78 5176.83 5901.14 5158.89C5911.51 5140.95 5918.09 5121.08 5920.51 5100.51C5925.16 5059.29 5922.37 5017.57 5912.28 4977.34C5899.86 4918.21 5879.5 4856.42 5832.08 4818.76C5779.21 4776.91 5706.55 4774.82 5638.62 4776.91C5561.35 4779.42 5482.82 4785.28 5410.29 4812.06C5337.76 4838.84 5263.56 4896.73 5232.87 4967.72" fill="#FFCE46"/>
<path d="M5879.21 5855.66C5879.21 5855.66 5879.21 5854.54 5879.21 5852.59V5843.38C5879.21 5834.87 5878.52 5823.16 5878.1 5808.37C5877.12 5777.41 5875.87 5733.61 5874.33 5679.49C5872.8 5625.37 5870.43 5560.38 5866.52 5488.54C5862.61 5416.71 5857.17 5337.77 5846.3 5255.61C5841.62 5215.63 5833.79 5176.08 5822.86 5137.33C5811.65 5101.59 5797.17 5066.94 5779.62 5033.84C5763.91 5003.76 5745.62 4975.11 5724.95 4948.2C5706.91 4924.81 5686.99 4902.93 5665.39 4882.78C5633.9 4853.72 5598.33 4829.43 5559.8 4810.67C5552.83 4807.6 5546.83 4804.4 5541.39 4802.3L5527.44 4796.86L5518.94 4793.52L5516.15 4792.12L5519.08 4792.82L5527.86 4795.75L5541.81 4800.49C5547.39 4802.58 5553.53 4805.51 5560.5 4808.44C5599.81 4826.46 5636.13 4850.4 5668.18 4879.44C5690.15 4899.6 5710.44 4921.53 5728.85 4944.99C5749.85 4972.05 5768.51 5000.84 5784.65 5031.05C5802.48 5064.45 5817.18 5099.42 5828.58 5135.52C5839.75 5174.55 5847.68 5214.44 5852.29 5254.78C5863.31 5337.35 5868.47 5416.43 5872.1 5488.27C5875.73 5560.1 5877.54 5624.96 5878.65 5679.35C5879.77 5733.75 5880.19 5777.97 5880.33 5808.37V5843.38C5880.33 5847.15 5880.33 5850.08 5880.33 5852.59C5880.17 5853.68 5879.79 5854.72 5879.21 5855.66V5855.66Z" fill="#263238"/>
<path d="M5930.12 5919.39C5923.37 5899.65 5918.2 5879.4 5914.63 5858.85C5904.79 5802.59 5902.59 5745.26 5908.08 5688.41C5916.82 5604.33 5934.88 5521.48 5961.92 5441.39C5990.93 5350.59 6030.26 5253.37 6063.88 5148.48C6080.43 5097.77 6093.93 5046.12 6104.33 4993.8C6113.66 4945 6120.37 4895.74 6124.41 4846.23C6130.74 4762.23 6132.23 4677.94 6128.88 4593.77C6126.5 4521.94 6122.6 4463.77 6120.23 4423.6C6119.11 4403.8 6118.14 4388.31 6117.58 4377.43C6117.58 4372.27 6117.58 4368.37 6116.88 4365.3C6116.73 4363.95 6116.73 4362.6 6116.88 4361.25C6116.95 4362.6 6116.95 4363.95 6116.88 4365.3C6116.88 4368.37 6116.88 4372.27 6118.14 4377.29C6118.97 4388.17 6120.37 4403.66 6122.04 4423.46C6125.11 4463.63 6129.57 4521.1 6132.64 4593.63C6136.75 4677.95 6135.68 4762.45 6129.43 4846.64C6121.94 4950 6101.7 5052.04 6069.18 5150.43C6035.42 5255.18 5995.95 5352.12 5966.8 5442.64C5939.54 5522.26 5921.11 5604.63 5911.85 5688.27C5906 5744.76 5907.51 5801.77 5916.31 5857.87C5919.8 5877.54 5923 5892.88 5925.79 5903.07C5926.91 5907.95 5927.89 5911.85 5928.58 5914.78L5930.12 5919.39Z" fill="#263238"/>
<path d="M6280.08 5983.28H5617.28L5602.07 5855.66H6280.08V5983.28Z" fill="#455A64"/>
<path d="M5688.26 5968.63L5771.25 6351.36H6131.39L6208.94 5968.63H5688.26Z" fill="#455A64"/>
<path d="M6280.07 5983.71C6280.07 5985.38 6134.32 5986.36 5954.53 5985.94C5774.74 5985.52 5629.12 5983.57 5629.12 5981.75C5629.12 5979.94 5774.74 5979.1 5954.53 5979.52C6134.32 5979.94 6280.07 5981.47 6280.07 5983.71Z" fill="#455A64"/>
<path d="M6166.26 6172.13C6148.28 6158.61 6128.7 6147.37 6107.96 6138.66C6085.31 6129.83 6061.27 6125.11 6036.96 6124.71C6007.12 6124.71 5977.53 6130.15 5949.65 6140.75C5919.38 6150.93 5891.2 6162.79 5863.73 6169.34C5839.34 6174.67 5814.18 6175.43 5789.52 6171.58C5772.89 6169.24 5756.77 6164.15 5741.82 6156.51C5737.77 6154.36 5733.9 6151.89 5730.24 6149.12C5728.9 6148.27 5727.68 6147.24 5726.62 6146.05C5726.62 6146.05 5732.34 6149.4 5742.94 6154.28C5757.92 6160.89 5773.81 6165.22 5790.08 6167.11C5814.23 6170.21 5838.73 6169.03 5862.47 6163.63C5888.97 6157.07 5917.15 6145.07 5947.69 6134.75C5976.26 6123.98 6006.57 6118.59 6037.1 6118.85C6062.05 6119.66 6086.63 6125.05 6109.63 6134.75C6125.03 6141.26 6139.52 6149.75 6152.73 6160C6156.36 6162.74 6159.81 6165.73 6163.05 6168.93C6165 6170.74 6166.4 6171.99 6166.26 6172.13Z" fill="#263238"/>
<path d="M6161.24 6197.65C6143.97 6184.53 6125.25 6173.44 6105.44 6164.6C6083.65 6155.84 6060.44 6151.11 6036.96 6150.65C6008.16 6150.77 5979.6 6155.91 5952.57 6165.85C5923.42 6175.62 5895.94 6186.91 5869.86 6193.75C5846.68 6200.42 5822.53 6203.11 5798.45 6201.7C5782.2 6200.72 5766.31 6196.5 5751.72 6189.28C5747.84 6187.18 5744.11 6184.8 5740.56 6182.17C5738.19 6180.36 5736.94 6179.38 5737.08 6179.1C5737.22 6178.82 5742.52 6182.31 5752.7 6187.05C5767.29 6193.23 5782.89 6196.68 5798.73 6197.24C5822.31 6198.04 5845.87 6194.98 5868.47 6188.17C5894.13 6180.92 5921.33 6169.48 5950.9 6159.58C5978.58 6149.41 6007.89 6144.35 6037.38 6144.65C6061.42 6145.38 6085.1 6150.73 6107.12 6160.41C6122.12 6166.87 6136.2 6175.32 6148.96 6185.52C6152.46 6188.16 6155.77 6191.05 6158.86 6194.17C6160.26 6196.4 6161.38 6197.51 6161.24 6197.65Z" fill="white"/>
<path d="M6172.81 6146.76C6154.16 6132.85 6134.05 6121.02 6112.84 6111.47C6089.8 6101.5 6065.22 6095.56 6040.17 6093.89C6009.39 6093.29 5978.78 6098.7 5950.07 6109.8C5920.99 6121.17 5891.27 6130.86 5861.08 6138.81C5835.74 6143.22 5809.84 6143.22 5784.5 6138.81C5767.42 6136.11 5750.82 6130.89 5735.27 6123.32C5731.07 6121.14 5727.06 6118.62 5723.27 6115.79C5720.62 6113.98 5719.37 6112.86 5719.5 6112.58C5719.64 6112.31 5725.36 6116.07 5736.24 6121.09C5751.88 6127.86 5768.34 6132.55 5785.2 6135.04C5810.08 6138.6 5835.38 6138.08 5860.1 6133.51C5889.93 6125.28 5919.3 6115.5 5948.11 6104.22C5977.53 6092.85 6008.93 6087.54 6040.45 6088.59C6066.12 6090.49 6091.25 6096.96 6114.65 6107.7C6130.38 6114.82 6145.22 6123.76 6158.87 6134.34C6162.59 6137.18 6166.13 6140.26 6169.47 6143.55C6171.84 6145.36 6172.95 6146.62 6172.81 6146.76Z" fill="white"/>
<path d="M6285.94 5983.71C6285.94 5985.52 6136.84 5986.92 5952.86 5986.92C5768.89 5986.92 5619.93 5985.52 5619.93 5983.71C5619.93 5981.89 5769.03 5980.64 5952.86 5980.64C6136.7 5980.64 6285.94 5982.03 6285.94 5983.71Z" fill="#263238"/>
</svg>
